<?xml version="1.0" encoding="UTF-8" standalone="no"?>
<!DOCTYPE svg PUBLIC "-//W3C//DTD SVG 1.1//EN" "http://www.w3.org/Graphics/SVG/1.1/DTD/svg11.dtd">
<svg width="100%" height="100%" viewBox="0 0 154 487" version="1.1" xmlns="http://www.w3.org/2000/svg" xmlns:xlink="http://www.w3.org/1999/xlink" xml:space="preserve" xmlns:serif="http://www.serif.com/" style="fill-rule:evenodd;clip-rule:evenodd;stroke-linejoin:round;stroke-miterlimit:2;">
    <g transform="matrix(1.33333,0,0,1.33333,0,0)">
        <g id="Mask" transform="matrix(-0.00592123,-0.00341862,0.00341862,-0.00592123,90.2361,288.997)">
            <g transform="matrix(-1.19323,2.26046,2.26046,1.19323,4183.39,-48403.5)">
                <path d="M17245,10372C17223,10363 17202,10352 17199,10347C17195,10342 17187,10341 17180,10345C17171,10350 17169,10349 17174,10342C17178,10335 17175,10330 17166,10330C17157,10330 17150,10325 17150,10319C17150,10312 17139,10297 17125,10284C17111,10271 17100,10256 17100,10250C17100,10245 17096,10240 17091,10240C17087,10240 17075,10219 17065,10194C17033,10110 17061,9901 17116,9817C17130,9796 17138,9775 17135,9770C17127,9757 17152,9720 17168,9720C17177,9720 17180,9714 17176,9705C17173,9696 17177,9687 17185,9684C17193,9680 17200,9670 17200,9660C17200,9632 17211,9610 17225,9610C17232,9610 17241,9594 17244,9574C17252,9535 17279,9501 17300,9508C17307,9511 17310,9508 17306,9502C17296,9486 17341,9477 17381,9487C17402,9493 17416,9503 17419,9515C17421,9525 17430,9541 17441,9549C17451,9558 17460,9574 17462,9585C17464,9595 17472,9612 17480,9621C17513,9660 17531,9690 17534,9712C17535,9715 17544,9727 17555,9737C17574,9753 17609,9799 17635,9841C17641,9849 17655,9872 17667,9890C17693,9930 17722,10041 17723,10107C17724,10164 17712,10220 17699,10220C17694,10220 17690,10226 17690,10233C17690,10258 17607,10320 17574,10320C17553,10320 17470,10233 17470,10211C17470,10206 17464,10200 17457,10197C17448,10194 17439,10205 17431,10228C17404,10308 17375,10352 17338,10371C17295,10393 17297,10393 17245,10372Z" style="fill:rgb(205,199,78);fill-rule:nonzero;"/>
            </g>
            <g transform="matrix(-1.58457,0.914853,0.914853,1.58457,9126.9,-9365.18)">
                <path d="M7565,11740C7554,11736 7542,11734 7539,11736C7535,11738 7527,11726 7520,11710C7509,11684 7510,11673 7525,11639C7543,11601 7543,11591 7528,11442C7519,11356 7514,11263 7516,11235C7522,11171 7548,11100 7573,11078C7597,11057 7592,11057 7625,11070C7646,11078 7651,11085 7647,11101C7643,11116 7648,11124 7668,11133C7683,11139 7697,11148 7700,11151C7703,11155 7739,11167 7780,11179C7898,11213 7922,11219 7962,11224C7982,11226 8010,11236 8025,11246C8048,11261 8051,11269 8046,11299C8040,11335 8023,11359 7999,11364C7952,11374 7883,11428 7763,11550C7678,11635 7637,11687 7642,11702C7652,11730 7603,11754 7565,11740ZM7673,11530C7679,11530 7705,11509 7734,11480C7740,11474 7754,11461 7764,11452C7775,11443 7794,11424 7808,11410C7821,11396 7848,11369 7867,11349C7887,11328 7900,11308 7896,11301C7879,11274 7620,11170 7620,11191C7620,11196 7616,11199 7611,11195C7578,11175 7568,11363 7596,11460C7605,11490 7614,11528 7617,11543L7622,11571L7644,11551C7656,11539 7669,11530 7673,11530Z" style="fill:rgb(205,199,78);fill-rule:nonzero;"/>
            </g>
            <g transform="matrix(-1.58457,0.914853,0.914853,1.58457,9126.9,-9365.18)">
                <path d="M7164,11712C7158,11708 7144,11691 7133,11673C7110,11634 6952,11468 6916,11445C6902,11435 6890,11422 6890,11415C6890,11409 6878,11398 6864,11392C6849,11385 6842,11375 6846,11368C6850,11362 6849,11360 6842,11364C6829,11372 6816,11353 6813,11325C6813,11314 6809,11296 6806,11285C6798,11259 6821,11230 6856,11224C6871,11221 6888,11216 6894,11213C6900,11209 6918,11205 6935,11203C6985,11199 7004,11194 7035,11178C7071,11159 7118,11108 7113,11094C7111,11088 7119,11073 7130,11060C7141,11047 7150,11034 7150,11030C7150,11014 7181,11012 7207,11025C7222,11033 7242,11040 7251,11040C7275,11040 7295,11118 7279,11150C7272,11166 7299,11240 7312,11240C7317,11240 7328,11248 7338,11258C7348,11267 7371,11287 7388,11303C7420,11330 7430,11360 7409,11360C7403,11360 7400,11367 7403,11374C7412,11396 7366,11434 7331,11436C7314,11437 7300,11433 7300,11428C7300,11422 7294,11420 7286,11423C7279,11426 7263,11422 7252,11414C7233,11401 7176,11400 7163,11413C7152,11424 7100,11379 7100,11359C7100,11328 7147,11287 7173,11295C7226,11311 7260,11304 7260,11276C7260,11270 7255,11272 7249,11280C7241,11292 7240,11292 7242,11275C7245,11249 7209,11188 7193,11194C7187,11197 7180,11194 7178,11188C7175,11181 7155,11189 7127,11208C7102,11226 7058,11252 7029,11266C7001,11281 6975,11301 6973,11311C6970,11321 6964,11328 6960,11325C6946,11317 6938,11339 6944,11365C6950,11389 7044,11486 7092,11519C7106,11528 7138,11555 7165,11580C7265,11673 7262,11668 7228,11700C7205,11721 7183,11725 7164,11712Z" style="fill:rgb(205,199,78);fill-rule:nonzero;"/>
            </g>
            <g transform="matrix(-1.58457,0.914853,0.914853,1.58457,9126.9,-9365.18)">
                <path d="M6641,11668C6631,11653 6628,11617 6629,11555C6630,11473 6616,11327 6602,11290C6600,11282 6596,11267 6595,11257C6594,11247 6588,11234 6582,11228C6551,11197 6441,11405 6415,11542C6411,11563 6402,11584 6394,11591C6386,11597 6380,11609 6380,11616C6380,11624 6370,11630 6355,11630C6341,11630 6330,11625 6330,11619C6330,11614 6326,11611 6322,11614C6306,11623 6280,11580 6280,11544C6280,11525 6289,11492 6299,11471C6312,11446 6317,11420 6315,11394C6312,11373 6309,11338 6306,11318C6301,11273 6272,11182 6260,11175C6249,11168 6180,11239 6180,11256C6180,11263 6177,11270 6173,11272C6165,11275 6160,11283 6083,11430C6038,11518 5986,11568 5955,11556C5930,11547 5937,11501 5970,11470C5986,11455 6025,11394 6056,11334C6124,11205 6200,11080 6212,11080C6216,11080 6220,11071 6220,11060C6220,11049 6226,11040 6234,11040C6242,11040 6250,11035 6252,11029C6254,11023 6270,11029 6290,11042C6322,11064 6326,11071 6331,11125C6338,11198 6380,11380 6389,11380C6393,11380 6402,11363 6409,11343C6416,11322 6435,11284 6451,11257C6467,11231 6480,11205 6480,11200C6480,11194 6485,11190 6490,11190C6496,11190 6500,11185 6500,11179C6500,11173 6509,11155 6521,11139C6532,11123 6539,11110 6536,11110C6525,11110 6566,11074 6586,11065C6642,11041 6665,11079 6666,11200C6668,11308 6694,11490 6714,11529C6722,11543 6731,11575 6735,11600C6740,11638 6738,11649 6720,11668C6693,11696 6659,11696 6641,11668Z" style="fill:rgb(205,199,78);fill-rule:nonzero;"/>
            </g>
            <g transform="matrix(-1.58457,0.914853,0.914853,1.58457,11468.9,-12311.1)">
                <path d="M9443,11594C9430,11580 9420,11559 9420,11548C9420,11528 9378,11472 9286,11370C9263,11345 9227,11303 9205,11276C9183,11249 9158,11220 9149,11211C9141,11202 9095,11150 9048,11095C9001,11040 8937,10969 8906,10938L8850,10881L8827,10913C8806,10941 8727,11098 8644,11275C8629,11308 8607,11371 8596,11414C8572,11505 8557,11519 8511,11499C8467,11479 8463,11455 8497,11412C8513,11391 8550,11321 8580,11255C8640,11121 8746,10910 8774,10868C8796,10834 8790,10806 8753,10765C8737,10749 8687,10688 8641,10630C8558,10525 8471,10423 8437,10388C8397,10346 8396,10280 8436,10280C8454,10280 8520,10345 8537,10380C8553,10410 8572,10440 8585,10455C8591,10461 8606,10481 8620,10500C8634,10518 8661,10551 8681,10574C8700,10597 8737,10642 8762,10675C8837,10774 8831,10774 8892,10675C8986,10523 9009,10477 9003,10450C8999,10430 9008,10414 9039,10380C9062,10355 9078,10329 9075,10323C9073,10316 9075,10310 9080,10310C9086,10310 9090,10302 9090,10291C9090,10279 9099,10271 9117,10267C9145,10262 9189,10274 9191,10287C9191,10292 9193,10306 9195,10320C9200,10357 9190,10390 9174,10390C9167,10390 9142,10416 9118,10448C9095,10479 9071,10510 9066,10517C9060,10523 9045,10546 9033,10567C9020,10588 8981,10654 8946,10713L8881,10822L9013,10954C9086,11028 9156,11091 9170,11095C9207,11107 9218,11123 9215,11166C9212,11206 9225,11225 9357,11370C9374,11389 9398,11417 9410,11432C9423,11449 9437,11457 9446,11453C9465,11446 9510,11469 9510,11486C9510,11493 9514,11500 9519,11502C9523,11504 9530,11522 9534,11542C9539,11572 9537,11582 9518,11599C9489,11627 9470,11625 9443,11594Z" style="fill:rgb(205,199,78);fill-rule:nonzero;"/>
            </g>
            <g transform="matrix(-1.58457,0.914853,0.914853,1.58457,6836.43,-10504.7)">
                <path d="M6997,10538C6989,10525 6982,10489 6981,10458C6980,10426 6975,10388 6969,10373C6963,10357 6956,10336 6955,10325C6953,10314 6947,10278 6941,10246C6934,10205 6933,10168 6940,10126C6945,10092 6951,10032 6952,9992C6953,9924 6956,9917 6983,9896C7007,9877 7016,9875 7036,9884C7080,9904 7083,9941 7049,10037C7002,10168 7001,10235 7040,10361C7058,10418 7073,10472 7075,10480C7077,10488 7081,10502 7084,10510C7089,10521 7080,10530 7058,10539C7040,10547 7022,10555 7018,10557C7014,10559 7005,10551 6997,10538Z" style="fill:rgb(205,199,78);fill-rule:nonzero;"/>
            </g>
            <g transform="matrix(-1.58457,0.914853,0.914853,1.58457,6836.43,-10504.7)">
                <path d="M6736,10511C6724,10488 6707,10185 6709,10026C6710,10004 6706,9970 6700,9951C6692,9923 6694,9911 6711,9884C6723,9863 6738,9852 6750,9853C6761,9854 6770,9858 6770,9863C6770,9867 6774,9869 6779,9865C6784,9862 6795,9869 6803,9880C6818,9902 6815,9940 6796,9952C6778,9964 6782,10220 6803,10449C6811,10525 6765,10568 6736,10511Z" style="fill:rgb(205,199,78);fill-rule:nonzero;"/>
            </g>
            <g transform="matrix(-1.58457,0.914853,0.914853,1.58457,6836.43,-10504.7)">
                <path d="M6023,10490C6010,10485 6000,10476 6000,10471C6000,10465 5984,10446 5963,10428C5943,10410 5915,10384 5900,10370C5817,10293 5753,10255 5700,10251C5689,10251 5680,10243 5680,10235C5680,10227 5677,10220 5673,10220C5658,10220 5639,10167 5651,10159C5657,10156 5662,10149 5663,10144C5665,10120 5727,10089 5780,10084C5839,10079 5932,10048 5959,10024C5968,10016 5820,9913 5752,9878C5729,9866 5716,9835 5722,9803C5728,9772 5793,9773 5827,9804C5842,9818 5858,9830 5862,9830C5866,9830 5870,9842 5872,9857C5875,9884 5881,9887 6021,9957C6035,9964 6050,9967 6054,9963C6063,9954 6097,9993 6092,10008C6090,10014 6093,10020 6099,10020C6105,10020 6110,10025 6110,10031C6110,10036 6106,10038 6100,10035C6095,10032 6090,10036 6090,10044C6090,10070 6088,10075 6068,10088C6058,10095 6042,10100 6032,10097C6023,10095 6002,10100 5987,10107C5972,10115 5955,10118 5950,10115C5944,10112 5940,10113 5940,10117C5940,10126 5871,10160 5853,10160C5848,10160 5832,10169 5819,10181L5795,10202L5830,10231C5870,10265 5970,10339 6018,10372C6037,10385 6065,10406 6082,10420C6109,10443 6111,10448 6099,10473C6086,10501 6064,10506 6023,10490Z" style="fill:rgb(205,199,78);fill-rule:nonzero;"/>
            </g>
            <g transform="matrix(-1.58457,0.914853,0.914853,1.58457,6836.43,-10504.7)">
                <path d="M6421,10452C6401,10431 6365,10390 6340,10360C6315,10330 6280,10290 6262,10270C6244,10251 6217,10221 6203,10203C6188,10185 6170,10171 6162,10172C6153,10174 6142,10160 6134,10137C6122,10104 6123,10095 6136,10075C6145,10061 6167,10045 6186,10038C6205,10032 6220,10022 6220,10018C6220,10013 6227,10010 6235,10012C6248,10015 6412,9861 6464,9798C6479,9780 6491,9775 6517,9778C6535,9780 6550,9787 6550,9792C6550,9797 6557,9808 6565,9816C6585,9837 6584,9873 6563,9892C6538,9913 6512,9921 6508,9908C6504,9896 6420,9938 6420,9952C6420,9956 6413,9960 6405,9960C6397,9960 6390,9966 6390,9973C6390,9979 6356,10020 6315,10062C6274,10104 6240,10143 6240,10148C6240,10154 6298,10217 6370,10290C6471,10392 6499,10427 6498,10446C6497,10459 6490,10470 6482,10470C6475,10470 6472,10475 6475,10480C6491,10505 6454,10486 6421,10452Z" style="fill:rgb(205,199,78);fill-rule:nonzero;"/>
            </g>
            <g transform="matrix(-1.58457,0.914853,0.914853,1.58457,6836.43,-10504.7)">
                <path d="M5416,10429C5397,10407 5391,10388 5392,10360C5393,10320 5385,10301 5253,10035C5197,9924 5142,9830 5131,9830C5128,9830 5124,9817 5123,9800C5121,9779 5127,9767 5140,9760C5167,9745 5194,9764 5210,9809C5217,9829 5233,9868 5247,9897C5269,9945 5273,9948 5294,9939C5312,9930 5329,9934 5380,9959C5415,9975 5447,9987 5451,9984C5461,9978 5479,9835 5485,9710C5487,9675 5493,9644 5499,9642C5505,9640 5510,9632 5510,9624C5510,9601 5567,9606 5581,9631C5594,9656 5600,9710 5589,9710C5576,9710 5540,9796 5529,9855C5517,9920 5521,9969 5541,10017C5553,10047 5552,10051 5531,10074C5512,10095 5509,10108 5509,10174C5509,10216 5511,10254 5514,10258C5524,10275 5529,10394 5520,10410C5489,10467 5453,10474 5416,10429ZM5448,10171C5451,10084 5443,10060 5410,10060C5400,10060 5390,10057 5388,10053C5387,10048 5366,10035 5343,10023L5301,10002L5310,10023C5324,10060 5382,10173 5406,10211C5419,10231 5426,10251 5422,10255C5418,10259 5422,10261 5430,10258C5441,10255 5446,10234 5448,10171Z" style="fill:rgb(205,199,78);fill-rule:nonzero;"/>
            </g>
            <g transform="matrix(-1.32242,0.763499,0.866441,1.50072,27403.5,-10405)">
                <path d="M18818,14353C18792,14346 18763,14263 18778,14239C18785,14229 18790,14213 18790,14205C18790,14197 18794,14190 18800,14190C18806,14190 18806,14181 18800,14165C18792,14145 18794,14136 18811,14119C18831,14099 18832,14091 18829,13784C18827,13611 18822,13470 18818,13470C18814,13470 18803,13482 18794,13498C18785,13513 18769,13536 18760,13550C18751,13564 18723,13613 18698,13660C18673,13707 18637,13772 18618,13806C18559,13910 18529,13981 18532,14010C18533,14025 18530,14044 18524,14051C18518,14059 18510,14073 18507,14083C18503,14092 18492,14100 18481,14100C18470,14100 18460,14104 18458,14109C18457,14114 18440,14111 18421,14102C18374,14079 18365,14043 18391,13976C18412,13919 18415,13864 18400,13740C18394,13693 18385,13608 18380,13550C18362,13352 18357,13315 18342,13293C18334,13280 18330,13263 18334,13255C18337,13247 18335,13240 18330,13240C18297,13240 18340,13156 18379,13142C18442,13120 18489,13203 18455,13274C18441,13303 18439,13328 18445,13417C18451,13520 18475,13762 18484,13805C18487,13816 18489,13832 18489,13840C18490,13863 18512,13836 18555,13755C18576,13717 18596,13680 18601,13675C18605,13669 18629,13626 18653,13580C18716,13459 18734,13426 18740,13420C18766,13394 18791,13343 18795,13309C18801,13268 18819,13245 18861,13228C18888,13217 18932,13261 18939,13307C18945,13337 18941,13351 18925,13373C18906,13401 18905,13414 18905,13783C18906,14161 18906,14165 18928,14201C18941,14221 18948,14244 18944,14254C18941,14263 18943,14270 18949,14270C18955,14270 18956,14278 18953,14287C18943,14313 18900,14350 18879,14350C18870,14350 18856,14352 18848,14354C18841,14356 18827,14356 18818,14353Z" style="fill:rgb(205,199,78);fill-rule:nonzero;"/>
                <path d="M18000,14140C18000,14135 17994,14130 17987,14130C17980,14130 17966,14106 17956,14078C17939,14030 17887,13932 17871,13920C17868,13917 17856,13898 17845,13877C17834,13856 17816,13829 17805,13816C17782,13789 17759,13759 17695,13672C17656,13618 17618,13587 17600,13594C17594,13596 17535,13536 17539,13532C17541,13530 17536,13516 17530,13499C17520,13475 17520,13464 17530,13444C17537,13431 17547,13420 17552,13420C17577,13420 17677,13344 17755,13265C17845,13175 17900,13114 17900,13105C17900,13103 17916,13084 17935,13064C17957,13041 17970,13019 17970,13001C17970,12969 17995,12930 18016,12930C18024,12930 18030,12926 18030,12921C18030,12907 18077,12933 18103,12961C18122,12981 18125,13000 18121,13052C18120,13063 18107,13070 18079,13075C18047,13081 18026,13094 17989,13132C17962,13160 17940,13185 17940,13189C17940,13192 17888,13249 17824,13315C17719,13424 17682,13468 17692,13474C17703,13481 17836,13513 17893,13522C17954,13533 17964,13532 17998,13513C18039,13491 18063,13490 18096,13508C18125,13523 18136,13591 18116,13628C18107,13643 18101,13651 18100,13646C18100,13641 18094,13643 18086,13649C18067,13665 17991,13655 17976,13635C17970,13627 17947,13618 17925,13616C17903,13614 17868,13609 17848,13605C17805,13597 17730,13593 17730,13599C17730,13601 17749,13628 17773,13659C17796,13690 17827,13733 17841,13755C17856,13777 17879,13806 17892,13820C17905,13834 17927,13861 17940,13880C17953,13899 17970,13921 17977,13928C17984,13935 17990,13945 17990,13950C17990,13954 18010,13978 18034,14003C18059,14028 18076,14051 18073,14054C18069,14057 18072,14060 18079,14060C18099,14060 18083,14112 18057,14132C18033,14151 18000,14156 18000,14140Z" style="fill:rgb(205,199,78);fill-rule:nonzero;"/>
                <path d="M16997,14067C16977,14036 16973,14000 16988,13974C16994,13962 16997,13950 16994,13947C16991,13944 16993,13918 16999,13889C17010,13838 17013,13783 17025,13415C17029,13316 17033,13215 17036,13190C17045,13098 17048,12940 17040,12940C17027,12940 17042,12896 17059,12883C17077,12869 17119,12866 17135,12878C17163,12898 17172,12957 17153,13010C17150,13018 17146,13042 17145,13063C17143,13084 17135,13107 17127,13113C17113,13125 17104,13186 17095,13335C17088,13458 17088,13797 17095,13867L17102,13938L17149,13934C17207,13928 17384,13890 17402,13879C17411,13873 17401,13858 17365,13825C17337,13800 17304,13769 17290,13757C17276,13744 17247,13727 17225,13720C17168,13702 17160,13693 17160,13647C17160,13616 17166,13601 17191,13578C17207,13562 17227,13551 17233,13554C17240,13557 17252,13563 17261,13566C17280,13573 17310,13622 17310,13647C17310,13682 17430,13784 17490,13800C17546,13815 17590,13858 17588,13897C17587,13939 17548,13969 17522,13948C17511,13939 17508,13938 17514,13948C17519,13957 17511,13960 17482,13960C17449,13960 17380,13974 17174,14021C17152,14027 17122,14042 17107,14056C17092,14070 17080,14077 17080,14073C17080,14069 17075,14071 17068,14078C17049,14097 17013,14092 16997,14067Z" style="fill:rgb(205,199,78);fill-rule:nonzero;"/>
                <path d="M16352,13879C16332,13873 16315,13859 16308,13844C16298,13823 16301,13811 16324,13764C16357,13700 16360,13713 16263,13518C16228,13449 16200,13388 16200,13383C16200,13368 16148,13310 16134,13310C16128,13310 16115,13290 16106,13265C16093,13225 16093,13218 16105,13213C16113,13210 16120,13201 16120,13193C16120,13169 16147,13150 16195,13141C16223,13136 16253,13122 16269,13106C16284,13092 16303,13080 16311,13080C16319,13080 16345,13069 16370,13056C16395,13043 16434,13027 16457,13021C16495,13011 16571,12950 16568,12931C16566,12909 16574,12899 16609,12889C16674,12870 16710,12909 16710,12999C16710,13014 16706,13030 16701,13035C16677,13060 16686,13157 16726,13315C16756,13429 16777,13477 16801,13483C16825,13489 16831,13575 16809,13592C16785,13612 16751,13630 16740,13630C16734,13630 16686,13658 16632,13693C16579,13728 16520,13765 16503,13775C16485,13786 16469,13798 16469,13802C16468,13806 16467,13814 16466,13820C16464,13836 16410,13890 16397,13889C16390,13889 16370,13884 16352,13879ZM16508,13676C16528,13663 16560,13639 16579,13621C16597,13604 16616,13590 16621,13590C16626,13590 16630,13584 16630,13576C16630,13569 16637,13557 16645,13550C16653,13543 16657,13534 16654,13529C16651,13524 16653,13520 16658,13520C16663,13520 16668,13505 16669,13488C16672,13443 16672,13439 16665,13405C16597,13052 16602,13070 16574,13070C16561,13070 16542,13074 16532,13079C16523,13084 16479,13103 16435,13120C16342,13157 16262,13212 16255,13243C16253,13255 16249,13274 16247,13285C16242,13313 16278,13403 16350,13550C16411,13672 16426,13694 16442,13684C16446,13681 16450,13684 16450,13689C16450,13706 16467,13702 16508,13676Z" style="fill:rgb(205,199,78);fill-rule:nonzero;"/>
                <path d="M20202,13128C20187,13120 20175,13099 20163,13061C20149,13011 20107,12940 20051,12870C20040,12856 20030,12841 20030,12835C20029,12830 20007,12798 19981,12765C19941,12715 19929,12706 19907,12708C19880,12711 19870,12696 19893,12687C19899,12684 19896,12681 19884,12681C19847,12679 19820,12648 19825,12611C19833,12549 19853,12510 19878,12510C19884,12510 19890,12505 19892,12499C19894,12493 19924,12487 19960,12486C20016,12485 20036,12478 20100,12443C20141,12420 20180,12397 20187,12391C20194,12385 20203,12380 20207,12380C20212,12380 20232,12366 20252,12350C20279,12327 20288,12314 20284,12297C20280,12270 20317,12231 20339,12238C20347,12241 20350,12238 20346,12232C20343,12226 20357,12221 20382,12218C20419,12215 20425,12217 20439,12242C20448,12257 20460,12270 20465,12270C20471,12270 20475,12285 20475,12303C20475,12335 20460,12360 20441,12360C20435,12360 20430,12364 20430,12368C20430,12372 20416,12377 20398,12378C20369,12380 20284,12420 20213,12465C20196,12476 20159,12499 20131,12515C20103,12532 20080,12548 20080,12552C20080,12562 20158,12588 20240,12605C20281,12613 20370,12635 20437,12654C20539,12681 20562,12685 20571,12674C20587,12655 20610,12657 20633,12678C20647,12690 20666,12694 20701,12693C20762,12690 20795,12717 20802,12773C20804,12793 20802,12810 20798,12810C20794,12810 20790,12817 20790,12825C20790,12843 20717,12876 20712,12860C20710,12855 20702,12850 20694,12850C20686,12850 20680,12847 20680,12843C20680,12833 20618,12796 20608,12798C20603,12799 20600,12796 20600,12792C20600,12787 20564,12775 20520,12765C20476,12755 20440,12743 20440,12738C20440,12733 20435,12732 20430,12735C20424,12739 20414,12737 20407,12732C20393,12721 20219,12688 20212,12695C20209,12698 20201,12695 20193,12689C20186,12683 20180,12681 20180,12684C20180,12688 20171,12686 20161,12681C20141,12670 20010,12654 20010,12663C20010,12665 20029,12692 20053,12723C20076,12753 20102,12788 20110,12800C20118,12812 20133,12833 20143,12845C20152,12858 20160,12870 20160,12872C20160,12881 20250,12970 20259,12970C20279,12970 20319,13030 20313,13053C20310,13065 20307,13083 20307,13092C20306,13106 20242,13144 20227,13139C20226,13139 20215,13134 20202,13128Z" style="fill:rgb(205,199,78);fill-rule:nonzero;"/>
                <path d="M18859,12960C18853,12955 18851,12947 18855,12940C18861,12931 18859,12929 18850,12935C18843,12939 18834,12937 18829,12929C18817,12910 18818,12853 18830,12845C18848,12834 18841,12773 18804,12612C18784,12526 18764,12435 18759,12410C18754,12385 18744,12347 18736,12325C18729,12303 18717,12265 18710,12240C18685,12150 18675,12124 18648,12073C18625,12029 18622,12016 18631,11996C18648,11959 18689,11944 18730,11960C18733,11961 18738,11962 18743,11961C18755,11959 18772,12012 18766,12035C18759,12061 18799,12230 18816,12248C18824,12255 18830,12271 18830,12282C18830,12293 18841,12334 18855,12372C18869,12410 18880,12451 18880,12464C18880,12476 18883,12490 18888,12494C18892,12498 18895,12505 18896,12508C18897,12527 18927,12610 18946,12649L18967,12693L18996,12646C19012,12620 19040,12580 19058,12555C19075,12531 19090,12510 19090,12507C19090,12505 19070,12503 19045,12501C19020,12500 19000,12503 19000,12508C19000,12518 18964,12517 18954,12508C18951,12504 18941,12504 18932,12507C18923,12511 18919,12509 18924,12502C18927,12496 18922,12489 18911,12485C18897,12481 18891,12468 18888,12432C18886,12406 18889,12382 18894,12378C18900,12374 18901,12370 18896,12370C18890,12370 18903,12354 18924,12335C18945,12316 18966,12302 18970,12305C18978,12310 19040,12245 19040,12231C19040,12226 19043,12220 19048,12218C19052,12217 19072,12194 19092,12169C19112,12144 19150,12101 19177,12074C19203,12047 19226,12014 19228,12000C19230,11987 19237,11972 19243,11968C19252,11963 19251,11960 19240,11960C19226,11960 19267,11925 19282,11925C19285,11925 19291,11922 19295,11918C19299,11914 19308,11914 19316,11917C19324,11920 19330,11917 19330,11911C19330,11884 19358,11904 19378,11945C19404,11998 19406,12026 19385,12034C19377,12037 19365,12051 19358,12065C19352,12079 19342,12089 19336,12088C19310,12084 19251,12121 19204,12172C19143,12238 19088,12315 19097,12324C19101,12327 19099,12330 19093,12330C19087,12330 19080,12339 19077,12350C19073,12366 19077,12370 19098,12370C19113,12370 19136,12373 19149,12377C19166,12381 19171,12380 19166,12372C19157,12357 19170,12357 19204,12370C19218,12375 19230,12386 19230,12394C19230,12402 19235,12410 19241,12412C19265,12420 19241,12487 19204,12515C19185,12530 19157,12560 19143,12583C19129,12606 19114,12627 19110,12630C19103,12635 19048,12720 19012,12781C19000,12801 18990,12825 18990,12834C18990,12843 18985,12850 18979,12850C18973,12850 18971,12857 18974,12866C18983,12890 18953,12953 18935,12946C18927,12943 18920,12944 18920,12949C18920,12961 18874,12969 18859,12960Z" style="fill:rgb(205,199,78);fill-rule:nonzero;"/>
                <path d="M19665,12955C19649,12947 19639,12941 19645,12940C19650,12940 19649,12935 19642,12928C19635,12921 19630,12907 19630,12896C19630,12885 19624,12869 19617,12861C19610,12852 19587,12816 19565,12780C19544,12744 19524,12713 19521,12710C19518,12707 19509,12693 19502,12679C19482,12642 19436,12590 19422,12590C19415,12590 19410,12586 19410,12580C19410,12575 19404,12570 19396,12570C19374,12570 19362,12548 19356,12498C19349,12439 19372,12412 19422,12419C19431,12420 19509,12383 19551,12357C19570,12345 19626,12311 19676,12281C19725,12252 19767,12224 19768,12219C19770,12214 19777,12210 19784,12210C19801,12210 19830,12173 19830,12149C19830,12138 19834,12131 19838,12134C19843,12137 19852,12130 19860,12120C19868,12110 19878,12104 19883,12107C19888,12110 19896,12107 19901,12099C19912,12080 19964,12100 19969,12125C19971,12136 19976,12147 19981,12150C19986,12153 19987,12172 19983,12192C19979,12222 19971,12231 19946,12241C19929,12247 19909,12252 19903,12251C19896,12250 19890,12254 19890,12260C19890,12265 19880,12270 19868,12270C19848,12270 19730,12338 19693,12370C19686,12375 19657,12394 19628,12411C19580,12439 19500,12514 19500,12530C19500,12537 19560,12633 19569,12640C19572,12643 19595,12674 19619,12710C19666,12777 19707,12820 19726,12820C19732,12820 19748,12831 19762,12845C19781,12864 19786,12877 19782,12902C19777,12934 19753,12963 19738,12954C19734,12952 19729,12954 19725,12960C19717,12973 19702,12972 19665,12955Z" style="fill:rgb(205,199,78);fill-rule:nonzero;"/>
                <path d="M18510,12771C18474,12757 18450,12731 18444,12702C18440,12684 18434,12670 18429,12670C18425,12670 18428,12653 18437,12633C18455,12590 18449,12468 18428,12434C18424,12429 18416,12394 18410,12357C18403,12320 18394,12287 18388,12284C18378,12278 18330,12317 18330,12331C18330,12336 18316,12363 18299,12392C18274,12435 18226,12557 18217,12605C18212,12626 18184,12655 18170,12654C18162,12653 18148,12652 18140,12651C18132,12651 18113,12640 18099,12627C18078,12609 18074,12598 18078,12568C18082,12530 18124,12475 18141,12486C18146,12489 18147,12484 18144,12476C18140,12466 18143,12460 18151,12460C18159,12460 18170,12450 18176,12437C18182,12425 18211,12371 18239,12316C18281,12237 18291,12210 18289,12176C18285,12119 18298,12067 18315,12074C18322,12076 18331,12072 18334,12063C18338,12054 18348,12050 18360,12053C18370,12056 18381,12053 18383,12046C18386,12038 18392,12039 18403,12049C18416,12059 18420,12059 18420,12050C18420,12031 18477,12096 18488,12128C18496,12150 18496,12227 18488,12259C18487,12262 18494,12299 18503,12340C18512,12381 18527,12453 18536,12499C18549,12567 18558,12588 18584,12614C18614,12644 18622,12672 18607,12698C18602,12704 18602,12715 18605,12720C18608,12726 18606,12730 18601,12730C18595,12730 18590,12737 18590,12745C18590,12753 18589,12760 18587,12760C18586,12760 18571,12764 18555,12769C18538,12773 18518,12774 18510,12771Z" style="fill:rgb(205,199,78);fill-rule:nonzero;"/>
                <path d="M17751,12662C17745,12653 17740,12649 17740,12653C17740,12670 17706,12627 17705,12608C17704,12597 17697,12584 17689,12579C17678,12572 17677,12567 17688,12550C17706,12520 17703,12499 17669,12434C17652,12402 17629,12358 17618,12337C17591,12283 17532,12200 17499,12170C17454,12128 17448,12107 17466,12060C17475,12038 17486,12020 17492,12020C17497,12020 17499,12016 17496,12011C17493,12006 17503,11997 17518,11991C17533,11984 17563,11955 17584,11925C17606,11895 17627,11870 17632,11870C17636,11870 17640,11864 17641,11858C17641,11851 17661,11829 17685,11810C17714,11787 17734,11761 17741,11737C17754,11696 17779,11680 17823,11683C17847,11685 17900,11722 17900,11737C17905,11853 17908,11868 17931,11905C17945,11927 17959,11953 17963,11963C17967,11972 17973,11979 17977,11978C17991,11975 18040,12003 18040,12014C18040,12021 18044,12020 18048,12012C18054,12003 18062,12006 18079,12024C18110,12057 18113,12146 18084,12166C18063,12181 18061,12182 18021,12230C17996,12261 17949,12353 17911,12448C17903,12465 17894,12480 17889,12480C17884,12480 17880,12488 17880,12498C17880,12508 17872,12526 17863,12540C17852,12556 17850,12565 17858,12568C17866,12570 17866,12578 17858,12595C17852,12609 17843,12617 17839,12614C17834,12611 17830,12614 17830,12620C17830,12634 17800,12665 17778,12673C17767,12677 17757,12673 17751,12662ZM17808,12448C17835,12404 17890,12297 17890,12289C17890,12285 17898,12265 17907,12244C17926,12198 17931,12180 17922,12180C17918,12180 17914,12168 17914,12154C17913,12140 17905,12123 17897,12117C17889,12110 17880,12081 17877,12049C17872,11999 17857,11955 17839,11940C17836,11937 17830,11922 17826,11906C17819,11877 17798,11850 17783,11850C17778,11850 17750,11874 17721,11903C17666,11957 17621,12032 17618,12075C17617,12089 17612,12100 17607,12100C17596,12100 17608,12159 17626,12187C17641,12211 17698,12315 17742,12400C17757,12430 17770,12460 17770,12467C17770,12490 17788,12481 17808,12448Z" style="fill:rgb(205,199,78);fill-rule:nonzero;"/>
                <path d="M17080,12538C17069,12526 17060,12510 17060,12503C17060,12496 17056,12490 17050,12490C17045,12490 17041,12487 17041,12483C17049,12434 16999,12356 16886,12240C16820,12170 16804,12159 16784,12164C16753,12172 16706,12129 16697,12085C16690,12048 16718,11999 16755,11982C16779,11971 16810,11975 16810,11989C16810,11992 16820,11996 16833,11996C16845,11997 16871,11999 16890,12000C16909,12001 16966,11999 17015,11995C17065,11991 17122,11987 17142,11986C17184,11985 17185,11984 17168,11965C17161,11958 17144,11937 17130,11918C17095,11872 16872,11651 16866,11657C16864,11660 16846,11654 16828,11646C16794,11629 16770,11587 16770,11543C16770,11518 16817,11477 16837,11484C16844,11487 16850,11483 16850,11474C16850,11461 16855,11462 16879,11479C16900,11494 16911,11514 16921,11552C16931,11597 16944,11615 17016,11688C17062,11733 17127,11803 17162,11841C17196,11880 17238,11917 17255,11924C17296,11942 17327,11971 17340,12004C17353,12039 17353,12083 17340,12075C17335,12072 17330,12075 17330,12083C17330,12093 17318,12097 17286,12096C17262,12095 17243,12093 17245,12090C17255,12074 16981,12094 16923,12114L16891,12125L16956,12200C17104,12371 17132,12400 17151,12400C17161,12400 17170,12405 17170,12410C17170,12416 17179,12430 17190,12442C17215,12470 17215,12481 17188,12523C17160,12565 17112,12572 17080,12538Z" style="fill:rgb(205,199,78);fill-rule:nonzero;"/>
            </g>
        </g>
    </g>
</svg>
