<?xml version="1.0" encoding="UTF-8" standalone="no"?>
<!DOCTYPE svg PUBLIC "-//W3C//DTD SVG 1.1//EN" "http://www.w3.org/Graphics/SVG/1.1/DTD/svg11.dtd">
<svg width="100%" height="100%" viewBox="0 0 154 487" version="1.1" xmlns="http://www.w3.org/2000/svg" xmlns:xlink="http://www.w3.org/1999/xlink" xml:space="preserve" xmlns:serif="http://www.serif.com/" style="fill-rule:evenodd;clip-rule:evenodd;stroke-linejoin:round;stroke-miterlimit:2;">
    <g transform="matrix(1.33333,0,0,1.33333,0,0)">
        <g id="Silk">
            <g transform="matrix(0.00821687,0.00107509,0.0011211,-0.00856847,-81.1197,374.036)">
                <path d="M19250,4470C19242,4465 19232,4464 19227,4467C19214,4475 19160,4449 19160,4435C19160,4425 19120,4421 19003,4416C18916,4412 18816,4407 18780,4405C18744,4402 18504,4398 18245,4395C17456,4386 17265,4381 16995,4360C16755,4342 16674,4335 16595,4325C16579,4323 16520,4316 16465,4310C16210,4281 16016,4258 15915,4245C15819,4232 15688,4216 15505,4195C15478,4192 15410,4183 15355,4175C15300,4168 15224,4159 15185,4155C15147,4152 15102,4147 15085,4145C15018,4135 14972,4129 14817,4110C14653,4091 14597,4085 14480,4075C14318,4062 14216,4052 14140,4044C14023,4031 13689,4010 13520,4006L13385,4002L13388,3979C13394,3943 13407,3932 13455,3924C13492,3919 13708,3930 13850,3945C13875,3948 13949,3954 14015,3959C14244,3977 14605,4010 14625,4014C14636,4017 14692,4024 14750,4030C14808,4036 14878,4045 14905,4050C14933,4055 14984,4062 15020,4065C15056,4068 15155,4080 15240,4090C15325,4101 15415,4112 15440,4115C15517,4123 15584,4132 15605,4137C15616,4139 15661,4145 15705,4150C15749,4154 15857,4168 15945,4179C16258,4220 16348,4230 16605,4255C16748,4269 16917,4285 16980,4292C17043,4298 17120,4304 17150,4305C17367,4314 17784,4321 18315,4325C18656,4328 18988,4332 19053,4336C19166,4342 19260,4330 19260,4310C19260,4306 19271,4300 19285,4298C19303,4294 19311,4298 19315,4312C19319,4322 19325,4328 19330,4325C19346,4315 19360,4349 19359,4394C19357,4431 19354,4438 19343,4429C19333,4420 19330,4421 19330,4434C19330,4443 19336,4450 19343,4450C19362,4451 19329,4466 19295,4473C19278,4476 19258,4475 19250,4470Z" style="fill:white;fill-rule:nonzero;stroke:white;stroke-width:53.15px;"/>
            </g>
            <g transform="matrix(0.00821687,0.00107509,0.0011211,-0.00856847,-81.1197,374.036)">
                <path d="M17717,4164C17714,4161 17697,4156 17678,4153C17660,4151 17644,4144 17642,4139C17640,4134 17570,4130 17487,4129C17300,4129 17313,4129 17210,4119C17163,4115 17089,4108 17045,4105C17001,4101 16920,4092 16865,4084C16810,4076 16740,4067 16710,4064C16680,4061 16590,4050 16510,4038C16430,4027 16334,4014 16295,4010C16257,4005 16167,3995 16095,3986C16024,3978 15940,3968 15910,3966C15734,3948 15657,3939 15651,3936C15648,3934 15591,3927 15525,3920C15403,3908 15239,3881 15140,3855C15048,3832 15026,3827 14990,3825C14915,3820 14890,3810 14890,3784C14890,3767 14900,3754 14923,3740C14959,3718 14989,3715 15034,3730C15207,3786 15351,3817 15570,3845C15628,3853 15671,3860 15690,3865C15698,3867 15750,3871 15805,3875C15860,3878 15913,3883 15922,3886C15938,3891 16130,3915 16240,3926C16270,3929 16347,3940 16410,3950C16473,3960 16552,3971 16585,3975C16618,3978 16659,3982 16675,3985C16692,3987 16732,3992 16765,3995C16798,3998 16832,4003 16841,4006C16850,4008 16886,4012 16921,4015C16956,4017 17037,4025 17100,4032C17163,4039 17297,4045 17396,4045C17555,4045 17580,4043 17597,4027C17608,4018 17620,4013 17623,4017C17627,4020 17630,4019 17630,4014C17630,4008 17645,3998 17664,3992C17709,3975 17745,3992 17770,4039C17786,4072 17787,4078 17772,4111C17757,4146 17728,4174 17717,4164Z" style="fill:white;fill-rule:nonzero;stroke:white;stroke-width:53.15px;"/>
            </g>
            <g transform="matrix(0.00821687,0.00107509,0.0011211,-0.00856847,-81.1197,374.036)">
                <path d="M16730,3782C16730,3777 16718,3775 16703,3778C16687,3781 16673,3777 16666,3768C16660,3761 16642,3749 16625,3743C16597,3732 16462,3710 16395,3704C16379,3703 16327,3697 16280,3691C16233,3685 16148,3681 16090,3681C15965,3681 15909,3678 15893,3667C15870,3652 15878,3591 15905,3566C15936,3538 15969,3527 15976,3544C15978,3550 15992,3557 16007,3558C16021,3559 16038,3565 16045,3570C16052,3576 16097,3583 16146,3585C16195,3588 16287,3597 16350,3606C16413,3615 16481,3624 16500,3625C16519,3627 16562,3632 16596,3636C16639,3641 16665,3638 16686,3628C16722,3611 16769,3616 16777,3638C16781,3647 16787,3658 16792,3661C16809,3673 16804,3740 16784,3755C16752,3780 16730,3791 16730,3782Z" style="fill:white;fill-rule:nonzero;stroke:white;stroke-width:53.15px;"/>
            </g>
            <g transform="matrix(0.0826806,-0.00558525,0.00558525,0.0826806,-82.654,111.308)">
                <g transform="matrix(0.161681,-0.0105554,-0.0101694,-0.155768,-797.417,4788.44)">
                    <path d="M18375,34383C18371,34373 18366,34331 18365,34290C18361,34182 18331,34030 18314,34030C18306,34030 18300,34026 18300,34021C18300,34016 18289,33998 18276,33983C18252,33955 18248,33929 18263,33914C18267,33910 18270,33898 18270,33888C18270,33878 18275,33870 18281,33870C18287,33870 18289,33863 18286,33854C18281,33842 18284,33839 18295,33844C18304,33847 18309,33846 18306,33841C18303,33836 18307,33827 18315,33820C18323,33813 18330,33801 18330,33794C18330,33786 18335,33780 18340,33780C18346,33780 18350,33786 18350,33793C18350,33802 18353,33801 18359,33791C18366,33780 18372,33781 18392,33794C18417,33810 18418,33810 18442,33773C18456,33752 18476,33715 18487,33690C18498,33665 18520,33624 18535,33600C18551,33575 18574,33537 18585,33515C18604,33481 18612,33475 18641,33474C18665,33474 18678,33479 18687,33494C18705,33526 18703,33570 18683,33577C18644,33591 18587,33671 18514,33814C18472,33897 18434,33966 18429,33968C18404,33978 18466,34067 18569,34170C18651,34251 18668,34290 18631,34309C18596,34328 18570,34322 18552,34289C18543,34273 18520,34242 18503,34222C18485,34202 18470,34181 18470,34177C18470,34173 18458,34157 18444,34142C18423,34120 18419,34119 18425,34135C18442,34180 18465,34319 18459,34337C18456,34347 18455,34359 18457,34363C18464,34375 18429,34399 18404,34400C18392,34400 18379,34392 18375,34383Z" style="fill:white;fill-rule:nonzero;"/>
                </g>
                <g transform="matrix(0.161681,-0.0105554,-0.0101694,-0.155768,-797.417,4788.44)">
                    <path d="M17553,34376C17540,34370 17526,34354 17521,34339C17512,34311 17517,34260 17530,34260C17534,34260 17540,34248 17543,34233C17546,34217 17560,34162 17574,34110C17599,34014 17606,33974 17619,33843C17628,33758 17647,33729 17693,33732C17746,33736 17767,33797 17730,33840C17719,33853 17707,33873 17705,33884C17702,33896 17687,33961 17671,34030C17630,34205 17607,34321 17614,34327C17616,34330 17614,34337 17609,34344C17604,34350 17594,34362 17587,34371C17578,34383 17570,34384 17553,34376Z" style="fill:white;fill-rule:nonzero;"/>
                </g>
                <g transform="matrix(0.161681,-0.0105554,-0.0101694,-0.155768,-797.417,4788.44)">
                    <path d="M18056,34371C18048,34362 18040,34342 18038,34327C18035,34311 18022,34284 18008,34267C17994,34249 17980,34225 17976,34212C17972,34200 17965,34190 17961,34190C17957,34190 17936,34165 17915,34135C17895,34105 17874,34079 17869,34079C17864,34078 17854,34077 17848,34076C17841,34075 17819,34059 17799,34039C17768,34008 17763,33997 17766,33969C17768,33950 17775,33933 17780,33932C17786,33930 17788,33924 17785,33919C17782,33915 17791,33908 17805,33904C17819,33901 17830,33894 17830,33889C17830,33884 17836,33880 17844,33880C17852,33880 17880,33855 17907,33823C17984,33733 18051,33667 18113,33622C18144,33598 18170,33574 18170,33567C18170,33559 18174,33560 18181,33570C18189,33582 18190,33581 18186,33564C18182,33551 18187,33537 18199,33526C18215,33512 18225,33510 18254,33518C18274,33524 18297,33535 18306,33544C18320,33559 18320,33560 18303,33561C18293,33561 18290,33564 18298,33567C18318,33575 18312,33615 18285,33640C18269,33655 18249,33663 18229,33662C18163,33660 18002,33807 17961,33909C17953,33926 17944,33940 17939,33940C17935,33940 17931,33950 17931,33963C17931,33975 17930,33995 17930,34007C17930,34029 17945,34050 18000,34111C18055,34171 18070,34191 18070,34204C18070,34218 18109,34255 18131,34262C18149,34268 18155,34357 18138,34373C18119,34392 18074,34391 18056,34371Z" style="fill:white;fill-rule:nonzero;"/>
                </g>
                <g transform="matrix(0.161681,-0.0105554,-0.0101694,-0.155768,-797.417,4788.44)">
                    <path d="M16957,34336C16953,34327 16948,34255 16945,34177C16942,34099 16937,34010 16933,33980C16930,33950 16926,33921 16925,33915C16925,33910 16921,33871 16916,33830C16912,33789 16904,33740 16898,33722C16891,33698 16891,33685 16899,33677C16905,33671 16910,33658 16910,33649C16910,33630 16933,33618 16955,33626C16974,33634 16981,33662 16979,33720C16975,33815 16979,33850 16996,33850C17013,33850 17080,33786 17080,33770C17080,33764 17086,33760 17094,33760C17101,33760 17127,33743 17151,33722C17200,33680 17256,33643 17315,33612C17337,33601 17372,33576 17393,33557C17432,33522 17466,33517 17477,33546C17480,33554 17486,33558 17490,33555C17494,33552 17500,33564 17502,33581C17505,33597 17503,33613 17498,33616C17493,33620 17491,33628 17494,33636C17497,33643 17487,33659 17473,33670C17453,33685 17439,33689 17413,33684C17373,33677 17302,33701 17275,33730C17265,33741 17252,33750 17246,33750C17228,33750 17149,33822 17125,33860C17086,33922 17098,33950 17214,34065C17270,34121 17329,34177 17347,34191C17403,34235 17400,34279 17340,34293C17319,34298 17311,34293 17290,34262C17276,34242 17250,34211 17233,34194C17215,34176 17200,34157 17200,34151C17200,34145 17189,34133 17175,34124C17162,34115 17148,34101 17145,34092C17138,34068 17078,34030 17049,34030C17035,34030 17018,34024 17011,34018C17000,34007 16998,34024 17003,34115C17010,34244 17004,34298 16980,34329C16965,34349 16962,34350 16957,34336Z" style="fill:white;fill-rule:nonzero;"/>
                </g>
            </g>
            <g transform="matrix(0.0162208,-1.30104e-18,-1.30104e-18,-0.0162208,40.7091,740.229)">
                <g transform="matrix(1,0,0,1,2553.44,-772.517)">
                    <path d="M1721,29701C1698,29683 1697,29677 1698,29584C1699,29529 1696,29481 1692,29475C1674,29449 1520,29415 1535,29440C1549,29462 1524,29447 1503,29421C1473,29383 1463,29340 1484,29340C1493,29340 1500,29334 1500,29326C1500,29310 1530,29295 1539,29307C1542,29311 1552,29316 1560,29318C1568,29320 1582,29327 1590,29335C1598,29342 1624,29357 1648,29369L1690,29391L1686,29363C1683,29348 1678,29306 1675,29270C1672,29234 1667,29198 1665,29190C1663,29182 1658,29134 1655,29083C1647,28980 1656,28950 1695,28950C1724,28950 1722,28943 1724,29075C1725,29130 1732,29211 1739,29255C1746,29299 1753,29350 1755,29368C1758,29407 1757,29407 1806,29423C1827,29431 1846,29444 1848,29453C1852,29474 1824,29505 1815,29490C1812,29485 1800,29480 1789,29480C1765,29480 1764,29518 1787,29600C1803,29659 1803,29661 1784,29687C1758,29722 1750,29723 1721,29701Z" style="fill:white;fill-rule:nonzero;"/>
                </g>
                <g transform="matrix(1,0,0,1,2553.44,-772.517)">
                    <path d="M1376,29591C1359,29572 1351,29528 1345,29420C1341,29342 1333,29293 1320,29271C1314,29260 1311,29247 1312,29243C1313,29239 1310,29213 1305,29187C1295,29121 1283,29136 1232,29275C1175,29430 1138,29510 1123,29510C1116,29510 1110,29515 1110,29521C1110,29535 1068,29522 1053,29502C1038,29483 1036,29436 1050,29445C1056,29448 1060,29447 1060,29442C1060,29436 1072,29419 1088,29403C1113,29375 1200,29181 1200,29152C1200,29145 1205,29134 1210,29127C1216,29120 1233,29090 1249,29060C1281,28999 1314,28982 1349,29007C1366,29018 1370,29032 1370,29071C1370,29175 1434,29502 1461,29536C1475,29553 1460,29590 1438,29590C1428,29590 1422,29595 1425,29600C1436,29618 1393,29610 1376,29591Z" style="fill:white;fill-rule:nonzero;"/>
                </g>
                <g transform="matrix(1,0,0,1,2553.44,-772.517)">
                    <path d="M647,29425C620,29405 575,29289 588,29276C590,29273 588,29265 583,29258C573,29244 528,29112 510,29040C503,29015 488,28982 476,28965C457,28940 454,28927 459,28890C464,28852 469,28844 490,28841C504,28840 526,28830 540,28820C554,28811 576,28799 589,28795C601,28791 626,28778 644,28766C661,28755 694,28737 717,28726C739,28716 763,28697 769,28684C782,28654 829,28641 842,28663C847,28672 856,28677 864,28674C871,28671 882,28676 889,28684C899,28695 897,28701 880,28713C859,28728 859,28729 876,28786C896,28855 940,28970 947,28970C950,28970 965,28961 981,28949C1033,28912 1048,28947 1000,28994C965,29029 965,29026 989,29080C1004,29114 1006,29128 997,29147C980,29186 936,29169 926,29119C920,29087 919,29087 902,29106C883,29126 788,29313 756,29393C746,29419 732,29441 726,29441C720,29442 706,29444 694,29445C683,29446 661,29437 647,29425ZM700,29321C700,29316 706,29305 714,29297C722,29290 756,29234 790,29174C824,29114 861,29057 872,29046C882,29036 889,29023 887,29016C884,29010 860,28953 834,28890C808,28827 785,28773 783,28771C778,28764 690,28808 690,28818C690,28822 672,28834 649,28844C626,28854 592,28878 572,28897C539,28929 538,28933 548,28963C554,28981 570,29029 584,29070C599,29111 617,29159 625,29177C633,29194 640,29213 640,29219C640,29237 683,29330 692,29330C696,29330 700,29326 700,29321Z" style="fill:white;fill-rule:nonzero;"/>
                </g>
                <path d="M2688,28773C2678,28770 2670,28764 2670,28759C2670,28754 2667,28751 2663,28752C2658,28753 2637,28746 2616,28737C2594,28727 2566,28717 2553,28714C2540,28710 2530,28705 2530,28701C2530,28698 2509,28683 2483,28670C2456,28656 2420,28633 2402,28618C2384,28602 2365,28590 2360,28590C2336,28590 2259,28533 2251,28508C2240,28478 2242,28476 2281,28467C2299,28462 2313,28466 2328,28480C2340,28491 2352,28500 2355,28500C2358,28500 2388,28518 2420,28540C2452,28562 2483,28580 2488,28580C2492,28580 2505,28588 2516,28598C2540,28620 2642,28670 2662,28670C2671,28670 2683,28664 2690,28656C2706,28635 2716,28495 2701,28486C2694,28482 2690,28486 2690,28499C2690,28527 2636,28563 2608,28554C2581,28546 2551,28511 2550,28488C2550,28479 2545,28468 2539,28465C2534,28461 2531,28453 2533,28447C2535,28441 2508,28394 2473,28343C2438,28292 2410,28248 2410,28246C2410,28244 2401,28231 2390,28218C2305,28117 2249,28028 2262,28014C2273,28004 2319,28019 2335,28038C2343,28047 2378,28096 2414,28145C2450,28195 2487,28246 2497,28260C2507,28274 2514,28288 2512,28293C2511,28297 2514,28300 2518,28300C2522,28300 2534,28315 2545,28333C2563,28365 2596,28394 2615,28396C2621,28397 2631,28398 2638,28399C2644,28399 2650,28407 2650,28415C2650,28423 2657,28430 2665,28430C2673,28430 2680,28435 2680,28440C2680,28446 2684,28450 2689,28450C2693,28450 2700,28417 2703,28376C2706,28336 2714,28292 2722,28279C2729,28266 2736,28253 2737,28252C2738,28250 2746,28252 2755,28257C2769,28265 2772,28294 2775,28476C2778,28592 2776,28699 2772,28714C2764,28744 2714,28779 2688,28773Z" style="fill:white;fill-rule:nonzero;"/>
                <path d="M1528,28071C1510,28054 1502,28014 1518,28024C1522,28026 1526,28020 1526,28010C1526,28000 1523,27993 1519,27996C1515,27998 1514,27991 1517,27980C1520,27969 1527,27960 1533,27960C1539,27960 1540,27919 1535,27838C1523,27649 1523,27656 1543,27652C1553,27650 1560,27655 1560,27664C1560,27673 1566,27680 1574,27680C1593,27680 1608,27725 1610,27790C1611,27820 1615,27862 1618,27883L1625,27921L1680,27894C1710,27879 1743,27860 1752,27852C1762,27844 1776,27840 1785,27844C1794,27847 1798,27846 1795,27840C1792,27834 1792,27830 1797,27830C1801,27830 1822,27814 1843,27795C1883,27759 1905,27758 1916,27792C1920,27807 1912,27822 1884,27851C1863,27872 1840,27890 1833,27890C1826,27890 1820,27894 1820,27899C1820,27904 1812,27911 1803,27914C1793,27917 1766,27937 1743,27959C1719,27980 1700,27996 1700,27994C1700,27992 1685,28005 1668,28024C1634,28059 1581,28090 1558,28089C1551,28089 1537,28081 1528,28071Z" style="fill:white;fill-rule:nonzero;"/>
                <path d="M547,28065C532,28059 523,28051 526,28047C530,28043 528,28040 521,28040C514,28040 511,28036 515,28031C518,28026 516,28019 510,28015C490,28003 500,27969 533,27941C565,27912 565,27911 565,27818C565,27719 560,27661 551,27645C548,27640 545,27620 545,27602C545,27578 549,27571 560,27575C568,27579 571,27578 568,27574C557,27563 577,27533 599,27527C611,27524 631,27531 647,27544C676,27566 678,27574 665,27660C661,27685 657,27759 656,27825L655,27945L767,27945C860,27945 882,27948 896,27962C912,27977 912,27983 900,28005C888,28028 880,28030 821,28031C785,28032 746,28034 735,28035C724,28036 699,28039 680,28041C661,28043 643,28047 640,28050C623,28067 573,28076 547,28065Z" style="fill:white;fill-rule:nonzero;"/>
                <path d="M698,27775L676,27730L698,27710C710,27698 720,27692 720,27696C720,27700 728,27693 739,27682C749,27670 760,27660 764,27660C778,27660 850,27591 907,27523C924,27502 957,27463 980,27435C1003,27408 1032,27374 1044,27360C1055,27347 1088,27305 1116,27267C1173,27192 1253,27125 1276,27134C1306,27146 1286,27196 1230,27250C1215,27264 1184,27300 1160,27330C1136,27360 1109,27392 1100,27401C1043,27460 947,27571 924,27605C910,27627 890,27653 881,27662C872,27671 849,27703 830,27734C811,27764 792,27786 788,27784C783,27781 776,27789 771,27802C765,27815 761,27819 761,27813C760,27806 751,27800 739,27800C728,27800 722,27805 725,27810C728,27816 729,27820 725,27820C722,27820 710,27800 698,27775Z" style="fill:white;fill-rule:nonzero;"/>
                <path d="M3088,27753C3078,27751 3070,27745 3070,27742C3070,27738 3053,27734 3033,27734C3012,27733 2955,27730 2905,27727C2856,27723 2788,27724 2755,27729C2681,27739 2670,27736 2670,27700C2670,27645 2691,27637 2804,27645C2899,27652 2950,27654 2994,27651C3013,27650 3012,27649 2992,27627C2980,27614 2970,27599 2970,27593C2970,27586 2959,27573 2945,27562C2931,27551 2920,27538 2920,27532C2920,27526 2915,27520 2910,27518C2904,27516 2897,27498 2893,27477C2889,27447 2890,27440 2904,27440C2913,27440 2920,27436 2920,27430C2920,27412 2983,27458 2994,27484C3007,27514 3099,27620 3112,27620C3128,27620 3171,27670 3176,27694C3179,27713 3174,27721 3150,27732C3134,27739 3120,27748 3120,27752C3120,27760 3116,27760 3088,27753Z" style="fill:white;fill-rule:nonzero;"/>
                <path d="M3413,27123C3393,27119 3390,27112 3390,27077C3390,27017 3397,27012 3463,27014C3494,27016 3520,27013 3520,27008C3520,27003 3524,27001 3528,27004C3532,27006 3569,26992 3610,26973C3651,26953 3687,26936 3690,26936C3701,26934 3765,26885 3797,26852C3833,26817 3831,26799 3793,26795C3754,26791 3714,26776 3700,26761C3664,26725 3716,26647 3761,26670C3772,26676 3790,26690 3801,26701C3811,26711 3831,26720 3844,26720C3868,26720 3950,26790 3950,26810C3950,26830 3836,26931 3767,26973C3622,27061 3587,27080 3569,27080C3559,27080 3550,27085 3550,27090C3550,27096 3541,27100 3531,27100C3520,27100 3505,27107 3496,27115C3482,27130 3459,27132 3413,27123Z" style="fill:white;fill-rule:nonzero;"/>
                <path d="M1200,26940C1200,26935 1194,26930 1187,26930C1179,26930 1163,26921 1150,26910C1137,26899 1124,26890 1119,26890C1115,26890 1096,26876 1076,26859C1055,26840 1028,26826 1008,26825C990,26823 974,26817 972,26812C970,26806 962,26804 954,26807C946,26810 931,26802 920,26790C898,26764 895,26754 910,26745C916,26742 920,26731 920,26722C921,26702 953,26660 968,26660C973,26660 980,26654 983,26646C986,26638 1002,26629 1019,26625C1036,26621 1050,26615 1050,26610C1050,26600 1075,26590 1115,26583C1132,26580 1151,26574 1157,26568C1173,26555 1220,26583 1220,26605C1220,26624 1182,26662 1170,26655C1165,26652 1159,26654 1156,26659C1153,26663 1138,26670 1123,26673C1107,26676 1082,26690 1066,26704L1036,26729L1069,26759C1087,26776 1135,26811 1176,26837C1248,26882 1272,26913 1255,26939C1247,26953 1200,26953 1200,26940Z" style="fill:white;fill-rule:nonzero;"/>
                <path d="M3100,26848C3064,26844 3006,26838 2970,26836C2934,26833 2904,26830 2903,26829C2899,26827 2882,26823 2869,26821C2863,26821 2860,26808 2862,26793C2865,26766 2868,26765 2924,26762C2956,26760 3006,26764 3034,26770C3062,26777 3162,26784 3255,26786C3390,26789 3436,26786 3475,26774C3556,26748 3588,26748 3605,26774C3622,26799 3615,26835 3592,26846C3570,26856 3185,26857 3100,26848Z" style="fill:white;fill-rule:nonzero;"/>
                <path d="M2717,26644C2699,26610 2715,26562 2746,26554C2772,26547 2816,26475 2800,26465C2794,26461 2781,26465 2771,26474C2761,26483 2751,26488 2748,26485C2745,26482 2730,26484 2715,26490C2691,26499 2684,26497 2659,26470C2626,26436 2624,26427 2646,26406C2661,26391 2680,26386 2708,26389C2714,26390 2720,26386 2720,26380C2720,26374 2735,26363 2753,26355C2770,26348 2804,26324 2827,26303C2865,26268 2920,26248 2920,26269C2920,26275 2928,26281 2938,26284C2960,26291 2967,26361 2947,26382C2933,26397 2890,26483 2890,26496C2890,26516 2848,26587 2812,26627C2768,26677 2737,26683 2717,26644Z" style="fill:white;fill-rule:nonzero;"/>
                <path d="M1299,26321C1287,26306 1280,26286 1283,26272C1285,26260 1285,26252 1282,26255C1279,26258 1250,26220 1217,26170C1185,26121 1154,26080 1149,26080C1144,26080 1140,26076 1140,26070C1140,26061 1047,25916 1015,25875C997,25852 996,25838 1012,25822C1029,25805 1060,25807 1060,25824C1060,25832 1064,25840 1068,25842C1072,25844 1091,25867 1110,25895C1129,25922 1148,25949 1153,25955C1157,25960 1176,25990 1196,26020C1216,26050 1247,26091 1264,26110C1282,26129 1304,26156 1313,26170C1322,26184 1343,26214 1360,26238C1394,26286 1398,26311 1374,26331C1348,26352 1320,26348 1299,26321Z" style="fill:white;fill-rule:nonzero;"/>
                <path d="M1656,26271C1642,26266 1636,26253 1634,26227C1633,26207 1636,26190 1641,26190C1646,26190 1650,26184 1650,26176C1650,26169 1657,26157 1665,26150C1695,26125 1753,26004 1765,25940C1775,25890 1792,25850 1805,25850C1812,25850 1832,25847 1849,25844C1875,25838 1879,25840 1874,25854C1871,25863 1872,25870 1878,25870C1883,25870 1891,25882 1895,25898C1909,25958 1951,26031 1978,26043C2025,26064 2038,26081 2034,26113C2029,26158 2012,26172 1972,26165C1942,26160 1904,26130 1901,26107C1901,26103 1889,26087 1875,26072C1861,26057 1850,26037 1850,26028C1850,26018 1843,26010 1833,26010C1824,26010 1819,26013 1823,26016C1826,26019 1818,26047 1804,26077C1791,26108 1778,26143 1776,26156C1768,26197 1737,26253 1718,26258C1708,26260 1700,26266 1700,26271C1700,26282 1683,26282 1656,26271Z" style="fill:white;fill-rule:nonzero;"/>
                <path d="M2392,26165C2350,26117 2362,26085 2445,26025C2510,25977 2574,25891 2597,25820C2613,25773 2624,25690 2615,25690C2601,25690 2550,25732 2555,25740C2557,25744 2542,25752 2521,25757C2486,25766 2481,25765 2464,25743C2445,25717 2438,25680 2452,25680C2456,25680 2460,25673 2460,25665C2460,25657 2465,25650 2470,25650C2476,25650 2497,25643 2518,25633C2538,25624 2558,25618 2563,25618C2567,25619 2570,25613 2570,25605C2570,25597 2574,25590 2580,25590C2585,25590 2597,25575 2606,25558C2626,25519 2702,25418 2744,25374C2769,25347 2778,25344 2801,25350C2816,25355 2831,25356 2833,25354C2840,25347 2863,25412 2861,25429C2859,25437 2852,25449 2845,25457C2818,25484 2796,25780 2820,25788C2825,25790 2824,25802 2818,25815C2812,25829 2803,25837 2799,25834C2794,25831 2790,25836 2790,25844C2790,25856 2780,25860 2755,25860C2736,25860 2720,25855 2720,25849C2720,25843 2713,25832 2705,25824C2697,25815 2690,25800 2690,25791C2690,25781 2697,25767 2705,25760C2723,25745 2725,25707 2708,25712C2701,25715 2686,25752 2674,25796C2663,25839 2648,25885 2641,25898C2635,25910 2632,25920 2635,25920C2638,25920 2611,25959 2576,26008C2540,26056 2500,26109 2488,26127C2475,26144 2453,26165 2439,26174C2414,26188 2412,26188 2392,26165ZM2740,25545C2740,25537 2736,25530 2731,25530C2726,25530 2720,25537 2716,25545C2713,25554 2716,25560 2725,25560C2733,25560 2740,25553 2740,25545Z" style="fill:white;fill-rule:nonzero;"/>
                <path d="M862,26037C856,26030 846,26002 839,25975C828,25929 788,25832 754,25767C734,25730 729,25702 740,25682C745,25673 751,25652 755,25637C760,25613 765,25609 788,25611C803,25613 821,25610 829,25605C838,25600 845,25600 847,25607C849,25613 860,25616 870,25613C881,25610 890,25612 890,25617C890,25629 976,25661 1088,25690C1130,25701 1140,25718 1121,25748C1115,25759 1104,25759 1070,25750C1047,25744 1014,25738 996,25738C979,25738 960,25733 954,25728C947,25723 919,25717 891,25713C846,25708 840,25709 839,25726C836,25766 838,25770 909,25923C944,25998 943,26026 903,26041C873,26052 874,26052 862,26037Z" style="fill:white;fill-rule:nonzero;"/>
            </g>
            <g transform="matrix(0.0826806,-0.00558525,0.00558525,0.0826806,-112.94,118.22)">
                <g transform="matrix(0.158506,0.0107074,0.0107074,-0.158506,-1866.13,5238.8)">
                    <path d="M21930,31579C21930,31574 21926,31571 21921,31575C21915,31578 21907,31564 21901,31544C21893,31514 21894,31501 21910,31470C21921,31449 21934,31430 21940,31428C21946,31426 21958,31374 21966,31312C21980,31205 21980,31198 21962,31172C21931,31128 21930,31114 21954,31091C21966,31079 21981,31070 21987,31070C22008,31070 22019,30947 21999,30935C21985,30926 21997,30874 22021,30833C22037,30807 22046,30802 22068,30806C22083,30809 22105,30823 22116,30838C22133,30859 22136,30870 22129,30895C22124,30911 22114,30930 22108,30935C22101,30941 22094,30959 22092,30975C22090,30992 22085,31021 22079,31040C22074,31059 22070,31083 22070,31092C22070,31111 22174,31190 22200,31190C22209,31190 22230,31201 22245,31214C22261,31228 22277,31237 22281,31235C22285,31232 22293,31237 22300,31245C22318,31267 22330,31254 22330,31212C22330,31192 22334,31160 22339,31142C22345,31122 22345,31110 22339,31110C22323,31110 22329,31040 22345,31034C22353,31030 22360,31021 22360,31013C22360,30983 22392,30932 22418,30921C22442,30910 22447,30911 22467,30934C22491,30962 22490,31010 22465,31040C22418,31097 22396,31198 22396,31363C22395,31480 22393,31493 22375,31506C22343,31529 22297,31520 22282,31487C22270,31462 22271,31454 22289,31415C22321,31348 22318,31333 22274,31338C22250,31341 22235,31338 22229,31329C22222,31318 22220,31318 22220,31328C22220,31336 22208,31328 22194,31311C22180,31294 22165,31282 22160,31285C22156,31288 22150,31283 22147,31275C22139,31257 22062,31219 22055,31231C22052,31236 22043,31308 22035,31392C22022,31536 22020,31546 21995,31568C21968,31591 21930,31598 21930,31579Z" style="fill:white;fill-rule:nonzero;"/>
                </g>
                <g transform="matrix(0.158506,0.0107074,0.0107074,-0.158506,-1866.13,5238.8)">
                    <path d="M21463,31555C21437,31537 21396,31458 21402,31439C21410,31416 21298,31261 21273,31260C21255,31259 21223,31222 21215,31195C21200,31142 21207,31109 21240,31077C21257,31061 21273,31050 21276,31053C21285,31062 21357,31033 21420,30994C21494,30948 21550,30889 21550,30855C21550,30821 21584,30790 21625,30786C21645,30785 21656,30788 21653,30794C21649,30799 21654,30801 21663,30797C21673,30794 21680,30794 21680,30798C21680,30802 21691,30817 21704,30832C21718,30846 21726,30860 21724,30863C21711,30875 21709,30989 21720,31040C21734,31107 21756,31160 21770,31160C21775,31160 21780,31167 21780,31176C21780,31187 21786,31191 21798,31188C21813,31184 21819,31192 21829,31227C21842,31268 21841,31273 21818,31308C21799,31336 21785,31345 21763,31347C21732,31349 21675,31377 21631,31411C21618,31422 21602,31430 21595,31430C21577,31430 21569,31455 21583,31469C21591,31477 21591,31480 21582,31480C21575,31480 21570,31489 21570,31500C21570,31526 21527,31570 21503,31570C21493,31570 21475,31563 21463,31555ZM21602,31333C21616,31320 21631,31310 21637,31310C21651,31310 21660,31286 21660,31251C21660,31236 21665,31219 21672,31212C21681,31203 21676,31177 21651,31101C21633,31046 21612,30996 21605,30990C21588,30975 21565,30987 21480,31054C21409,31110 21381,31139 21380,31157C21380,31164 21374,31173 21366,31177C21355,31184 21356,31194 21375,31234C21388,31261 21404,31288 21411,31294C21419,31300 21431,31317 21438,31331C21451,31355 21457,31357 21515,31356C21566,31355 21583,31351 21602,31333Z" style="fill:white;fill-rule:nonzero;"/>
                </g>
            </g>
            <g transform="matrix(0.0826806,-0.00558525,0.00558525,0.0826806,-93.5815,177.315)">
                <g transform="matrix(0.158506,0.0107074,0.0107074,-0.158506,-1866.13,5238.8)">
                    <path d="M20685,30428C20641,30403 20609,30335 20614,30280C20615,30266 20612,30244 20607,30230C20602,30216 20589,30171 20579,30130C20568,30089 20555,30046 20550,30035C20520,29969 20500,29920 20500,29911C20500,29906 20494,29900 20488,29897C20469,29891 20475,29802 20496,29779C20515,29758 20597,29751 20584,29772C20580,29778 20585,29789 20595,29796C20606,29804 20611,29817 20607,29830C20604,29841 20606,29853 20611,29856C20616,29859 20616,29869 20610,29881C20603,29894 20603,29900 20610,29900C20615,29900 20620,29915 20620,29933C20620,29957 20623,29961 20630,29950C20635,29942 20640,29939 20640,29943C20640,29948 20648,29944 20657,29934C20668,29923 20675,29921 20678,29929C20680,29935 20688,29940 20696,29940C20705,29940 20708,29935 20704,29928C20699,29920 20702,29919 20716,29924C20737,29933 20746,29934 20775,29927C20786,29924 20814,29919 20838,29915C20861,29911 20887,29902 20895,29893C20912,29877 20970,29857 20970,29869C20970,29872 20984,29881 21001,29887C21031,29898 21032,29901 21026,29937C21021,29962 21007,29986 20983,30008C20956,30033 20949,30047 20953,30065C20955,30079 20953,30090 20948,30090C20943,30090 20941,30094 20945,30100C20948,30105 20938,30116 20923,30124C20907,30131 20888,30146 20879,30156C20854,30185 20791,30312 20788,30342C20786,30357 20781,30372 20777,30376C20773,30380 20770,30392 20770,30402C20770,30415 20763,30420 20745,30420C20731,30420 20720,30425 20720,30430C20720,30443 20710,30442 20685,30428ZM20773,30166C20788,30133 20788,30132 20762,30108C20732,30080 20700,30066 20700,30079C20700,30084 20691,30086 20680,30083C20661,30078 20661,30079 20683,30121C20695,30145 20709,30168 20714,30171C20719,30175 20720,30182 20716,30188C20709,30199 20729,30209 20746,30203C20752,30201 20764,30184 20773,30166Z" style="fill:white;fill-rule:nonzero;"/>
                </g>
                <g transform="matrix(0.158506,0.0107074,0.0107074,-0.158506,-1866.13,5238.8)">
                    <path d="M21040,30351C21040,30346 21030,30340 21017,30336C20991,30330 20950,30268 20968,30262C20975,30260 20980,30252 20980,30244C20980,30227 21042,30200 21081,30200C21114,30200 21122,30171 21091,30163C21078,30160 21071,30146 21067,30118C21061,30071 21067,30050 21086,30050C21094,30050 21099,30047 21098,30043C21097,30038 21100,29999 21105,29955C21110,29911 21115,29868 21115,29860C21116,29852 21120,29828 21124,29807C21134,29760 21120,29739 21093,29761C21083,29769 21058,29784 21036,29795C21015,29806 20995,29820 20993,29827C20986,29844 20965,29843 20951,29826C20942,29816 20942,29806 20949,29792C20961,29769 21045,29699 21064,29696C21080,29694 21110,29665 21110,29651C21110,29646 21124,29630 21142,29616C21166,29597 21178,29594 21192,29601C21202,29606 21210,29608 21210,29604C21210,29601 21217,29603 21225,29610C21233,29617 21237,29626 21234,29631C21231,29636 21234,29640 21240,29640C21255,29640 21244,29707 21226,29725C21219,29732 21209,29769 21205,29807C21196,29887 21190,30119 21197,30137C21201,30146 21214,30143 21244,30125C21266,30111 21300,30092 21318,30084C21335,30075 21350,30065 21350,30061C21350,30057 21327,30047 21299,30040C21265,30031 21242,30017 21229,29999C21190,29944 21215,29861 21265,29880C21278,29885 21290,29886 21293,29883C21296,29880 21308,29892 21318,29910C21342,29948 21371,29965 21430,29973C21453,29976 21476,29984 21480,29990C21484,29996 21489,30001 21491,29999C21493,29998 21505,30000 21516,30004C21542,30012 21552,30043 21540,30075C21529,30104 21480,30142 21463,30136C21456,30133 21450,30135 21450,30141C21450,30147 21444,30150 21436,30147C21428,30144 21419,30146 21416,30153C21413,30162 21411,30161 21411,30152C21410,30145 21405,30142 21400,30145C21394,30149 21377,30154 21362,30156C21325,30163 21108,30290 21134,30290C21139,30290 21122,30306 21097,30325C21049,30362 21040,30366 21040,30351Z" style="fill:white;fill-rule:nonzero;"/>
                </g>
                <g transform="matrix(0.158506,0.0107074,0.0107074,-0.158506,-1866.13,5238.8)">
                    <path d="M20127,30302C20117,30292 20110,30278 20110,30271C20110,30264 20105,30262 20098,30266C20090,30271 20089,30268 20093,30255C20097,30246 20095,30231 20089,30224C20081,30214 20081,30210 20088,30210C20094,30210 20097,30203 20094,30195C20090,30187 20092,30180 20097,30180C20106,30180 20116,30102 20126,29950C20130,29890 20132,29677 20130,29618C20127,29553 20185,29526 20260,29557C20292,29570 20417,29597 20529,29615C20554,29619 20575,29618 20579,29613C20588,29598 20687,29587 20695,29600C20698,29605 20709,29610 20719,29610C20760,29610 20734,29742 20690,29754C20682,29757 20665,29761 20653,29765C20637,29769 20630,29766 20625,29750C20620,29736 20615,29732 20607,29738C20599,29744 20584,29741 20565,29729C20549,29718 20540,29710 20545,29710C20551,29709 20539,29702 20520,29694C20499,29684 20442,29676 20379,29673L20273,29667L20248,29701C20218,29741 20215,29767 20196,30089C20192,30156 20204,30220 20224,30233C20232,30238 20231,30243 20220,30249C20212,30255 20209,30262 20213,30266C20224,30277 20190,30309 20174,30303C20166,30300 20160,30303 20160,30309C20160,30326 20145,30322 20127,30302Z" style="fill:white;fill-rule:nonzero;"/>
                </g>
                <g transform="matrix(0.158506,0.0107074,0.0107074,-0.158506,-1866.13,5238.8)">
                    <path d="M19697,30260C19688,30249 19680,30236 19680,30231C19680,30226 19677,30220 19673,30218C19662,30214 19630,30151 19630,30134C19630,30126 19635,30120 19641,30120C19664,30120 19503,29942 19476,29938C19470,29938 19460,29936 19453,29936C19446,29935 19433,29926 19425,29915C19416,29904 19411,29902 19415,29910C19419,29918 19415,29916 19406,29905C19398,29894 19386,29880 19380,29873C19357,29845 19408,29769 19449,29771C19514,29772 19655,29736 19747,29694C19764,29686 19783,29680 19789,29680C19795,29680 19800,29676 19800,29672C19800,29664 19860,29636 19873,29639C19877,29639 19880,29633 19880,29625C19880,29611 19917,29590 19939,29590C19944,29590 19961,29604 19977,29620C20007,29650 20007,29651 19991,29684C19982,29703 19969,29716 19960,29715C19952,29713 19934,29719 19922,29727C19909,29735 19896,29739 19893,29736C19889,29733 19881,29735 19875,29740C19868,29746 19850,29752 19834,29754C19757,29764 19564,29846 19557,29872C19554,29881 19566,29903 19584,29922C19601,29940 19640,29984 19670,30020C19699,30056 19730,30090 19737,30096C19744,30102 19763,30124 19780,30145C19819,30194 19819,30232 19781,30259C19744,30285 19719,30286 19697,30260Z" style="fill:white;fill-rule:nonzero;"/>
                </g>
            </g>
            <g transform="matrix(0.0111574,-6.50521e-19,-6.50521e-19,-0.0111574,-105.656,469.032)">
                <path d="M13530,25421C13530,25416 13522,25410 13512,25408C13487,25401 13480,25300 13505,25300C13514,25300 13519,25296 13516,25292C13513,25287 13526,25278 13545,25272C13563,25265 13580,25253 13583,25246C13586,25238 13626,25204 13672,25169C13774,25093 13873,24999 13862,24988C13842,24968 13630,24943 13630,24961C13630,24967 13626,24969 13621,24966C13616,24962 13610,24966 13607,24972C13604,24982 13596,24982 13572,24974C13554,24967 13538,24966 13533,24971C13528,24976 13514,24971 13500,24958C13478,24938 13477,24937 13484,24955C13559,25139 13566,25226 13503,25187C13497,25183 13484,25158 13474,25132C13458,25088 13410,24970 13390,24925C13385,24914 13367,24865 13350,24816C13316,24716 13293,24672 13270,24665C13244,24657 13228,24622 13240,24600C13255,24573 13287,24575 13327,24606C13380,24646 13410,24700 13420,24772C13430,24837 13454,24900 13471,24900C13476,24900 13480,24894 13480,24887C13480,24847 13511,24814 13543,24819C13547,24819 13550,24814 13550,24807C13550,24800 13558,24790 13569,24783C13605,24760 13684,24608 13677,24573C13672,24545 13706,24520 13748,24520C13788,24520 13823,24559 13814,24594C13811,24608 13804,24620 13800,24620C13796,24620 13790,24629 13787,24640C13784,24651 13771,24664 13758,24669C13742,24675 13730,24691 13722,24719C13715,24741 13705,24762 13699,24766C13690,24771 13675,24801 13670,24825C13669,24831 13664,24840 13659,24847C13640,24869 13689,24883 13831,24897C13878,24901 13891,24899 13906,24884C13926,24864 13990,24862 13990,24881C13990,24886 13998,24890 14009,24890C14028,24890 14046,24930 14031,24940C14026,24943 14019,24955 14015,24968C14011,24981 14006,24990 14004,24987C14001,24985 13962,25019 13916,25064C13870,25108 13818,25156 13800,25170C13734,25219 13691,25258 13696,25263C13699,25266 13693,25271 13683,25274C13665,25281 13620,25343 13620,25362C13620,25368 13606,25386 13588,25402C13557,25430 13530,25439 13530,25421Z" style="fill:white;fill-rule:nonzero;"/>
                <path d="M14260,25168C14260,25164 14253,25160 14245,25160C14227,25160 14213,25133 14216,25103C14216,25090 14212,25080 14206,25080C14200,25080 14202,25075 14210,25070C14218,25065 14222,25060 14218,25060C14214,25060 14215,25048 14221,25034C14232,25003 14205,24858 14164,24733C14151,24692 14142,24654 14145,24649C14149,24644 14146,24640 14141,24640C14135,24640 14130,24622 14130,24600C14130,24573 14134,24560 14144,24560C14151,24560 14163,24553 14170,24545C14179,24535 14187,24533 14200,24540C14209,24545 14220,24547 14223,24544C14231,24536 14246,24570 14254,24613C14259,24639 14257,24650 14249,24650C14233,24650 14245,24769 14269,24840C14280,24870 14291,24913 14294,24935C14297,24957 14309,25006 14321,25043C14347,25126 14337,25165 14289,25172C14273,25175 14260,25173 14260,25168Z" style="fill:white;fill-rule:nonzero;"/>
                <path d="M14615,25142C14583,25135 14572,25121 14565,25077C14560,25043 14504,24941 14479,24920C14476,24917 14437,24859 14392,24791C14309,24665 14297,24633 14325,24610C14346,24592 14390,24612 14390,24640C14390,24651 14394,24660 14399,24660C14404,24660 14410,24668 14413,24678C14422,24705 14500,24842 14524,24871C14545,24897 14563,24923 14579,24949C14595,24974 14607,24951 14620,24873C14627,24830 14636,24788 14641,24779C14646,24769 14645,24748 14639,24729C14624,24676 14664,24623 14702,24647C14709,24651 14721,24655 14728,24656C14746,24659 14744,24655 14765,24730C14774,24766 14785,24797 14789,24800C14795,24805 14823,24857 14858,24925C14896,25000 14902,25000 14896,24925C14892,24887 14885,24842 14880,24825C14822,24634 14807,24566 14805,24475C14801,24316 14803,24325 14769,24313C14739,24301 14738,24300 14752,24278C14763,24261 14779,24254 14809,24252C14843,24249 14854,24253 14876,24277C14900,24303 14901,24309 14895,24365C14891,24398 14888,24450 14888,24480C14889,24537 14914,24687 14929,24730C14946,24778 14969,24865 14974,24905C14987,24993 14989,25069 14980,25075C14974,25078 14970,25088 14970,25096C14970,25110 14940,25148 14933,25143C14931,25141 14917,25134 14900,25125C14882,25116 14867,25098 14862,25077C14857,25060 14827,25003 14797,24951C14766,24900 14739,24853 14737,24847C14729,24821 14711,24856 14701,24918C14689,24989 14689,25040 14702,25040C14714,25040 14704,25114 14692,25118C14685,25120 14680,25127 14680,25133C14680,25145 14650,25150 14615,25142Z" style="fill:white;fill-rule:nonzero;"/>
            </g>
            <g transform="matrix(0.0149218,-4.33681e-19,-1.51788e-18,-0.0149782,-82.8372,634.879)">
                <path d="M12151,27858C12134,27841 12120,27820 12120,27813C12120,27806 12116,27800 12111,27800C12106,27800 12098,27790 12094,27778C12091,27765 12030,27697 11959,27625C11810,27474 11670,27309 11581,27180C11475,27027 11452,26980 11484,26980C11506,26980 11549,27023 11601,27099C11694,27233 11730,27281 11785,27344C11791,27350 11816,27381 11842,27412C11956,27546 12114,27692 12161,27703C12186,27709 12187,27708 12193,27657C12195,27629 12196,27556 12195,27495C12193,27435 12191,27345 12189,27295C12188,27237 12182,27196 12172,27181C12150,27145 12152,27079 12175,27049C12194,27026 12211,27023 12270,27031C12292,27035 12350,27019 12350,27009C12350,27005 12360,26998 12372,26994C12396,26987 12644,26825 12671,26800C12679,26792 12707,26770 12733,26753C12759,26735 12780,26716 12780,26711C12780,26706 12754,26699 12723,26695C12691,26692 12625,26678 12575,26665C12497,26644 12451,26630 12286,26579C12267,26574 12252,26574 12244,26580C12216,26604 12140,26542 12140,26495C12140,26467 12054,26266 12040,26262C12034,26260 12030,26251 12030,26242C12030,26223 11949,26095 11919,26068C11893,26043 11885,26045 11849,26090C11831,26112 11812,26130 11807,26130C11796,26130 11760,26169 11760,26182C11760,26186 11754,26190 11748,26190C11732,26190 11697,26241 11672,26300C11658,26335 11656,26351 11664,26372C11671,26393 11669,26408 11654,26439C11637,26475 11590,26513 11590,26491C11590,26486 11583,26479 11574,26476C11564,26472 11561,26474 11566,26482C11571,26490 11568,26491 11556,26487C11546,26483 11531,26480 11523,26480C11512,26480 11509,26472 11512,26450C11515,26433 11512,26420 11506,26420C11499,26420 11499,26417 11506,26410C11518,26398 11509,26344 11480,26265C11470,26238 11459,26204 11455,26190C11438,26123 11353,25955 11245,25771C11137,25590 11095,25530 11028,25456L10973,25397L10958,25446C10936,25516 10919,25855 10934,25940C10936,25954 10944,26002 10950,26048C10961,26123 10965,26132 10994,26152C11048,26190 11063,26238 11036,26290C11027,26310 11026,26318 11033,26314C11040,26311 11032,26319 11015,26333C10999,26347 10974,26358 10960,26358C10944,26357 10920,26371 10895,26394C10848,26438 10765,26495 10715,26519C10703,26524 10688,26535 10681,26544C10674,26553 10662,26560 10655,26560C10648,26560 10614,26586 10579,26619L10516,26677L10550,26693C10620,26725 10657,26737 10735,26755C10779,26764 10838,26778 10867,26785C10919,26798 10970,26795 10970,26779C10970,26774 10981,26775 10994,26780C11007,26785 11020,26787 11023,26784C11034,26773 11051,26812 11052,26850C11052,26881 11047,26896 11026,26915C11011,26928 10996,26940 10992,26941C10988,26941 10980,26945 10974,26948C10958,26957 10840,27135 10840,27149C10840,27155 10836,27160 10830,27160C10825,27160 10820,27167 10820,27175C10820,27183 10816,27190 10812,27190C10808,27190 10798,27206 10791,27226C10784,27245 10761,27292 10740,27328C10719,27365 10706,27397 10710,27400C10715,27403 10718,27414 10717,27425C10715,27441 10720,27444 10740,27442C10787,27437 10895,27417 10976,27399C11020,27389 11098,27374 11148,27365C11302,27339 11362,27316 11414,27264C11451,27227 11466,27220 11490,27222C11525,27226 11555,27255 11562,27293C11566,27316 11561,27326 11532,27348C11513,27362 11488,27375 11476,27376C11465,27377 11448,27380 11440,27383C11364,27409 11245,27436 11120,27454C11060,27463 10982,27479 10920,27495C10887,27503 10837,27515 10808,27520C10725,27536 10619,27571 10614,27585C10605,27609 10547,27592 10518,27558C10494,27528 10493,27523 10505,27493C10512,27476 10516,27459 10512,27456C10509,27453 10512,27450 10519,27450C10526,27450 10528,27445 10525,27440C10522,27434 10525,27423 10534,27415C10553,27395 10561,27396 10554,27418C10551,27427 10555,27424 10563,27410C10572,27396 10577,27383 10575,27380C10573,27377 10578,27369 10586,27362C10594,27355 10600,27352 10600,27356C10600,27372 10645,27321 10688,27257C10734,27188 10759,27145 10801,27060C10814,27035 10827,27013 10830,27010C10846,26997 10901,26889 10895,26881C10892,26875 10869,26868 10845,26864C10820,26861 10797,26854 10794,26849C10791,26844 10785,26842 10780,26845C10771,26851 10754,26847 10612,26811C10551,26795 10511,26790 10459,26794C10419,26797 10390,26795 10390,26789C10390,26784 10384,26780 10376,26780C10362,26780 10349,26747 10344,26696C10340,26654 10386,26612 10431,26618C10457,26621 10472,26616 10493,26596C10508,26582 10524,26570 10527,26570C10530,26570 10542,26560 10554,26548C10587,26513 10656,26460 10745,26401C10829,26345 10860,26313 10863,26280C10864,26269 10867,26260 10871,26260C10884,26260 10887,26103 10876,26030C10866,25969 10861,25289 10870,25250C10877,25221 10917,25198 10948,25207C10960,25210 10968,25215 10965,25219C10963,25223 10970,25226 10982,25226C10994,25225 11005,25231 11007,25238C11010,25246 11006,25248 10993,25243C10978,25238 10979,25241 10997,25257C11011,25270 11017,25284 11014,25297C11010,25310 11016,25327 11028,25341C11152,25488 11269,25667 11399,25908C11468,26037 11520,26142 11520,26155C11520,26158 11531,26186 11545,26216C11559,26246 11570,26275 11570,26280C11570,26301 11591,26289 11601,26263C11625,26196 11650,26160 11732,26078C11797,26011 11817,25985 11813,25970C11810,25959 11813,25950 11819,25950C11825,25950 11830,25944 11830,25937C11830,25929 11841,25913 11855,25900C11878,25879 11883,25878 11920,25889C11968,25903 11990,25933 11988,25982C11987,26003 11995,26029 12007,26046C12032,26081 12057,26126 12123,26250C12184,26367 12186,26370 12259,26445C12306,26494 12329,26509 12376,26524C12478,26556 12479,26557 12474,26582C12469,26604 12469,26604 12481,26585C12487,26574 12494,26564 12496,26562C12497,26560 12506,26563 12517,26569C12532,26577 12661,26604 12777,26624C12795,26627 12812,26625 12816,26619C12820,26612 12826,26613 12835,26620C12844,26628 12849,26626 12854,26613C12860,26598 12862,26598 12870,26610C12878,26622 12880,26622 12885,26608C12890,26595 12898,26594 12921,26600C12937,26605 12950,26607 12950,26604C12950,26601 12959,26604 12970,26610C12981,26616 12989,26624 12986,26628C12984,26632 12985,26656 12990,26683C12995,26717 12994,26730 12984,26730C12978,26730 12970,26737 12966,26745C12963,26755 12947,26760 12920,26760C12886,26760 12841,26778 12820,26800C12817,26803 12808,26810 12799,26815C12750,26846 12634,26924 12630,26929C12627,26932 12582,26964 12530,27000C12478,27035 12434,27068 12432,27072C12430,27076 12422,27080 12415,27080C12407,27080 12395,27086 12388,27093C12381,27099 12362,27112 12346,27120C12331,27128 12314,27145 12309,27157C12304,27170 12293,27180 12285,27180C12271,27180 12269,27204 12273,27398C12275,27517 12274,27647 12269,27685C12265,27728 12265,27756 12271,27758C12277,27761 12277,27767 12270,27775C12263,27784 12264,27791 12275,27800C12283,27807 12290,27818 12290,27824C12290,27841 12247,27877 12232,27872C12225,27870 12220,27873 12220,27879C12220,27901 12182,27889 12151,27858Z" style="fill:white;fill-rule:nonzero;"/>
            </g>
            <g transform="matrix(0.01409,0.000574671,0.000574671,-0.01409,-226.913,519.303)">
                <path d="M19339,32929C19315,32905 19319,32857 19348,32830C19357,32821 19387,32787 19415,32754C19442,32722 19493,32667 19528,32632C19563,32598 19590,32564 19588,32557C19583,32541 19442,32471 19413,32470C19401,32470 19388,32475 19384,32481C19379,32489 19375,32489 19370,32480C19359,32462 19340,32477 19340,32503C19341,32523 19360,32584 19388,32653C19411,32708 19396,32746 19350,32755C19319,32761 19292,32727 19285,32673C19278,32621 19259,32547 19228,32458C19218,32426 19211,32396 19214,32392C19217,32387 19210,32365 19199,32344C19188,32323 19181,32297 19184,32287C19186,32278 19180,32253 19170,32233C19136,32163 19180,32102 19244,32132C19268,32142 19270,32148 19270,32209C19270,32245 19275,32282 19280,32290C19287,32300 19290,32301 19290,32292C19290,32283 19303,32281 19337,32284C19362,32287 19393,32284 19404,32278C19435,32262 19500,32198 19500,32183C19500,32175 19506,32167 19514,32164C19523,32161 19526,32152 19523,32143C19519,32133 19521,32129 19527,32133C19533,32137 19540,32133 19544,32125C19547,32117 19556,32110 19565,32110C19573,32110 19580,32106 19580,32101C19580,32095 19589,32092 19600,32093C19611,32094 19620,32100 19620,32107C19620,32114 19626,32117 19634,32114C19658,32105 19676,32190 19657,32225C19638,32261 19622,32271 19591,32265C19558,32259 19520,32277 19520,32297C19520,32303 19510,32317 19497,32327C19485,32337 19467,32357 19458,32372L19440,32399L19493,32416C19577,32445 19634,32452 19662,32438C19697,32421 19728,32439 19744,32488C19759,32530 19759,32536 19742,32563C19732,32581 19710,32597 19685,32606C19660,32614 19625,32640 19593,32674C19541,32728 19460,32845 19460,32864C19460,32882 19392,32950 19376,32950C19367,32950 19351,32941 19339,32929Z" style="fill:white;fill-rule:nonzero;"/>
            </g>
            <g transform="matrix(0.01409,0.000574671,0.000574671,-0.01409,-226.913,519.303)">
                <path d="M20103,32839C20078,32830 20045,32800 20045,32785C20044,32766 20015,32715 19993,32692C19980,32679 19970,32666 19970,32661C19970,32647 19918,32625 19889,32628C19866,32631 19861,32628 19866,32616C19870,32604 19868,32601 19857,32605C19829,32616 19814,32495 19842,32479C19849,32475 19866,32462 19879,32451C19893,32439 19910,32432 19917,32434C19924,32437 19930,32434 19930,32427C19930,32420 19966,32379 20010,32336C20092,32254 20120,32211 20120,32166C20120,32148 20125,32140 20138,32140C20152,32140 20153,32138 20140,32130C20127,32121 20127,32119 20140,32111C20148,32106 20157,32103 20161,32106C20165,32108 20170,32101 20173,32091C20176,32078 20185,32073 20204,32075C20259,32081 20291,32119 20280,32165C20279,32171 20277,32181 20277,32188C20277,32194 20273,32200 20268,32200C20264,32200 20261,32206 20262,32213C20264,32219 20260,32224 20253,32223C20247,32221 20238,32229 20235,32240C20231,32252 20223,32257 20214,32253C20204,32249 20179,32268 20142,32308C20076,32379 19994,32492 20015,32484C20023,32481 20035,32482 20042,32486C20064,32500 20241,32490 20257,32474C20282,32450 20323,32462 20341,32500C20360,32539 20355,32567 20327,32594C20309,32612 20303,32612 20261,32600C20236,32593 20204,32587 20190,32588C20176,32588 20147,32589 20124,32590C20102,32590 20070,32594 20054,32599L20025,32607L20070,32653C20097,32680 20123,32698 20135,32697C20146,32696 20155,32700 20155,32705C20155,32711 20165,32726 20177,32739C20195,32758 20197,32766 20188,32786C20182,32799 20173,32807 20167,32803C20161,32800 20160,32802 20164,32809C20171,32820 20153,32844 20135,32846C20129,32847 20115,32844 20103,32839Z" style="fill:white;fill-rule:nonzero;"/>
            </g>
            <g transform="matrix(0.01409,0.000574671,0.000574671,-0.01409,-226.913,519.303)">
                <path d="M18828,32768C18818,32756 18810,32743 18809,32740C18809,32737 18807,32727 18805,32718C18803,32708 18810,32698 18820,32695C18833,32691 18837,32680 18835,32652C18834,32631 18828,32606 18822,32595C18816,32584 18796,32537 18778,32490C18739,32388 18707,32329 18675,32298C18661,32285 18650,32271 18650,32267C18650,32263 18638,32248 18623,32234C18595,32208 18584,32161 18604,32148C18610,32144 18615,32135 18615,32128C18615,32121 18634,32112 18658,32107C18696,32100 18704,32101 18721,32121C18731,32133 18741,32148 18741,32154C18743,32173 18746,32185 18752,32200C18756,32208 18761,32235 18765,32260C18773,32321 18800,32356 18827,32342C18843,32333 18854,32336 18883,32355C18927,32385 18961,32387 18985,32360C19000,32344 19011,32341 19039,32346C19080,32354 19104,32374 19094,32392C19090,32399 19090,32402 19094,32399C19108,32387 19160,32444 19160,32471C19160,32511 19139,32522 19076,32517C19045,32514 19020,32515 19019,32518C19016,32549 19008,32580 18996,32610C18988,32629 18974,32665 18965,32690C18943,32752 18918,32779 18878,32785C18852,32789 18841,32785 18828,32768ZM18930,32524C18944,32483 18938,32475 18891,32466C18854,32459 18854,32459 18888,32531C18908,32574 18914,32573 18930,32524Z" style="fill:white;fill-rule:nonzero;"/>
            </g>
            <g transform="matrix(0.01409,0.000574671,0.000574671,-0.01409,-226.913,519.303)">
                <path d="M18196,32731C18178,32712 18179,32697 18200,32620C18217,32560 18214,32341 18196,32273C18184,32227 18184,32220 18196,32220C18210,32220 18214,32208 18211,32182C18210,32175 18215,32170 18222,32171C18229,32173 18245,32170 18258,32166C18302,32151 18328,32166 18335,32211C18340,32240 18338,32255 18330,32260C18323,32264 18321,32273 18325,32279C18329,32286 18326,32298 18318,32307C18310,32317 18305,32349 18305,32387C18304,32449 18313,32468 18325,32431C18328,32420 18338,32409 18346,32406C18354,32403 18358,32396 18355,32390C18352,32385 18354,32380 18359,32380C18365,32380 18370,32373 18370,32365C18370,32357 18374,32350 18378,32350C18382,32350 18399,32330 18414,32305C18430,32281 18446,32263 18451,32266C18456,32269 18457,32264 18454,32256C18450,32245 18454,32240 18464,32240C18473,32240 18480,32236 18480,32230C18480,32225 18499,32221 18523,32222C18560,32222 18569,32227 18587,32254C18598,32272 18620,32326 18635,32375C18650,32425 18674,32487 18689,32515C18704,32542 18714,32574 18712,32585C18708,32604 18670,32648 18670,32634C18670,32631 18663,32633 18655,32640C18639,32653 18586,32645 18594,32631C18597,32626 18592,32623 18582,32624C18561,32625 18556,32581 18572,32527C18581,32496 18580,32479 18566,32435C18557,32405 18543,32374 18535,32366C18527,32359 18523,32350 18527,32347C18530,32344 18522,32342 18510,32343C18473,32346 18359,32529 18344,32609C18340,32628 18331,32655 18324,32669C18316,32683 18310,32700 18310,32705C18310,32718 18253,32750 18231,32750C18221,32750 18205,32742 18196,32731Z" style="fill:white;fill-rule:nonzero;"/>
            </g>
            <g transform="matrix(0.01409,0.000574671,0.000574671,-0.01409,-226.913,519.303)">
                <path d="M17890,32729C17890,32724 17885,32722 17879,32725C17863,32735 17820,32690 17820,32663C17820,32650 17815,32640 17808,32640C17802,32640 17800,32637 17803,32634C17809,32628 17776,32573 17760,32560C17756,32557 17737,32533 17717,32507C17697,32481 17667,32448 17651,32435C17635,32421 17608,32397 17591,32381C17573,32364 17554,32353 17547,32355C17536,32359 17480,32292 17480,32275C17480,32271 17492,32257 17508,32244C17535,32220 17580,32211 17580,32230C17580,32235 17587,32237 17595,32234C17603,32230 17621,32235 17635,32244C17649,32253 17665,32258 17670,32255C17675,32252 17681,32254 17685,32259C17692,32271 17708,32268 17785,32240C17896,32200 18000,32143 18000,32122C18000,32115 18005,32112 18010,32115C18036,32131 18013,32103 17945,32035C17888,31977 17864,31960 17842,31960C17785,31960 17762,31856 17814,31832C17847,31817 17902,31839 17919,31874C17933,31904 17974,31950 17985,31950C17989,31950 18003,31964 18017,31980C18031,31998 18051,32010 18065,32010C18078,32010 18092,32015 18095,32020C18099,32026 18106,32028 18111,32025C18116,32021 18120,32024 18120,32029C18120,32035 18129,32040 18140,32040C18151,32040 18160,32046 18160,32054C18160,32062 18167,32070 18174,32073C18182,32076 18192,32095 18196,32115C18201,32145 18198,32154 18176,32175C18161,32189 18153,32200 18157,32201C18161,32201 18152,32206 18137,32210C18122,32215 18090,32217 18068,32214C18039,32212 18018,32216 18001,32227C17986,32237 17944,32257 17905,32273C17867,32289 17833,32305 17830,32308C17825,32315 17764,32342 17728,32354C17703,32361 17706,32385 17733,32407C17745,32417 17773,32448 17795,32475C17817,32503 17852,32542 17873,32563C17894,32583 17918,32616 17926,32635C17939,32666 17938,32672 17919,32705C17897,32741 17890,32748 17890,32729Z" style="fill:white;fill-rule:nonzero;"/>
            </g>
            <g transform="matrix(0.0185829,0,0,-0.0185829,-178.897,875.937)">
                <path d="M10342,31277C10330,31271 10318,31257 10316,31246C10281,31066 10280,31056 10296,31033C10304,31019 10321,31010 10335,31010C10375,31010 10396,31040 10404,31108C10408,31142 10415,31172 10420,31175C10438,31186 10430,31236 10408,31257C10375,31286 10367,31289 10342,31277Z" style="fill:white;fill-rule:nonzero;"/>
            </g>
            <g transform="matrix(0.0185829,0,0,-0.0185829,-178.897,875.937)">
                <path d="M9783,31182C9764,31170 9756,31121 9771,31103C9783,31089 9871,31045 10000,30989C10025,30978 10055,30964 10068,30958C10097,30943 10115,30959 10106,30994C10101,31013 10075,31033 9997,31076C9941,31108 9882,31146 9867,31162C9839,31189 9807,31197 9783,31182Z" style="fill:white;fill-rule:nonzero;"/>
            </g>
            <g transform="matrix(0.0185829,0,0,-0.0185829,-178.897,875.937)">
                <path d="M10833,31038C10810,31017 10648,30940 10625,30940C10607,30940 10574,30908 10565,30882C10560,30864 10564,30852 10580,30835C10605,30809 10615,30810 10675,30850C10697,30865 10759,30897 10812,30923C10909,30970 10928,30989 10916,31028C10912,31038 10904,31047 10897,31047C10891,31047 10878,31050 10870,31053C10862,31056 10845,31049 10833,31038Z" style="fill:white;fill-rule:nonzero;"/>
            </g>
            <g transform="matrix(0.0185829,0,0,-0.0185829,-178.897,875.937)">
                <path d="M9951,30638C9925,30621 9904,30617 9854,30618C9783,30620 9767,30607 9780,30559C9785,30544 9786,30529 9782,30526C9766,30509 9903,30511 9940,30528C10000,30556 10035,30615 10010,30645C9994,30664 9992,30664 9951,30638Z" style="fill:white;fill-rule:nonzero;"/>
            </g>
            <g transform="matrix(0.0185829,0,0,-0.0185829,-178.897,875.937)">
                <path d="M10490,30526C10457,30493 10499,30429 10569,30405C10596,30396 10626,30380 10635,30370C10667,30335 10720,30347 10720,30389C10720,30420 10679,30464 10640,30475C10626,30479 10604,30492 10590,30505C10562,30530 10506,30542 10490,30526Z" style="fill:white;fill-rule:nonzero;"/>
            </g>
            <g transform="matrix(0.0185829,0,0,-0.0185829,-178.897,875.937)">
                <path d="M10201,30426C10194,30418 10187,30399 10184,30383C10175,30330 10147,30239 10139,30234C10121,30223 10130,30171 10150,30160C10179,30144 10213,30185 10250,30281C10282,30364 10287,30409 10268,30428C10252,30444 10215,30443 10201,30426Z" style="fill:white;fill-rule:nonzero;"/>
            </g>
            <g transform="matrix(0.0169149,-0.00976579,-0.00976579,-0.0169149,138.531,887.015)">
                <path d="M10342,31277C10330,31271 10318,31257 10316,31246C10281,31066 10280,31056 10296,31033C10304,31019 10321,31010 10335,31010C10375,31010 10396,31040 10404,31108C10408,31142 10415,31172 10420,31175C10438,31186 10430,31236 10408,31257C10375,31286 10367,31289 10342,31277Z" style="fill:white;fill-rule:nonzero;"/>
            </g>
            <g transform="matrix(0.0169149,-0.00976579,-0.00976579,-0.0169149,138.531,887.015)">
                <path d="M9783,31182C9764,31170 9756,31121 9771,31103C9783,31089 9871,31045 10000,30989C10025,30978 10055,30964 10068,30958C10097,30943 10115,30959 10106,30994C10101,31013 10075,31033 9997,31076C9941,31108 9882,31146 9867,31162C9839,31189 9807,31197 9783,31182Z" style="fill:white;fill-rule:nonzero;"/>
            </g>
            <g transform="matrix(0.0169149,-0.00976579,-0.00976579,-0.0169149,138.531,887.015)">
                <path d="M10833,31038C10810,31017 10648,30940 10625,30940C10607,30940 10574,30908 10565,30882C10560,30864 10564,30852 10580,30835C10605,30809 10615,30810 10675,30850C10697,30865 10759,30897 10812,30923C10909,30970 10928,30989 10916,31028C10912,31038 10904,31047 10897,31047C10891,31047 10878,31050 10870,31053C10862,31056 10845,31049 10833,31038Z" style="fill:white;fill-rule:nonzero;"/>
            </g>
            <g transform="matrix(0.0169149,-0.00976579,-0.00976579,-0.0169149,138.531,887.015)">
                <path d="M9951,30638C9925,30621 9904,30617 9854,30618C9783,30620 9767,30607 9780,30559C9785,30544 9786,30529 9782,30526C9766,30509 9903,30511 9940,30528C10000,30556 10035,30615 10010,30645C9994,30664 9992,30664 9951,30638Z" style="fill:white;fill-rule:nonzero;"/>
            </g>
            <g transform="matrix(0.0169149,-0.00976579,-0.00976579,-0.0169149,138.531,887.015)">
                <path d="M10490,30526C10457,30493 10499,30429 10569,30405C10596,30396 10626,30380 10635,30370C10667,30335 10720,30347 10720,30389C10720,30420 10679,30464 10640,30475C10626,30479 10604,30492 10590,30505C10562,30530 10506,30542 10490,30526Z" style="fill:white;fill-rule:nonzero;"/>
            </g>
            <g transform="matrix(0.0169149,-0.00976579,-0.00976579,-0.0169149,138.531,887.015)">
                <path d="M10201,30426C10194,30418 10187,30399 10184,30383C10175,30330 10147,30239 10139,30234C10121,30223 10130,30171 10150,30160C10179,30144 10213,30185 10250,30281C10282,30364 10287,30409 10268,30428C10252,30444 10215,30443 10201,30426Z" style="fill:white;fill-rule:nonzero;"/>
            </g>
            <g transform="matrix(0.0138109,-0.0138109,-0.0138109,-0.0138109,294.486,757.217)">
                <path d="M10342,31277C10330,31271 10318,31257 10316,31246C10281,31066 10280,31056 10296,31033C10304,31019 10321,31010 10335,31010C10375,31010 10396,31040 10404,31108C10408,31142 10415,31172 10420,31175C10438,31186 10430,31236 10408,31257C10375,31286 10367,31289 10342,31277Z" style="fill:white;fill-rule:nonzero;"/>
            </g>
            <g transform="matrix(0.0138109,-0.0138109,-0.0138109,-0.0138109,294.486,757.217)">
                <path d="M9783,31182C9764,31170 9756,31121 9771,31103C9783,31089 9871,31045 10000,30989C10025,30978 10055,30964 10068,30958C10097,30943 10115,30959 10106,30994C10101,31013 10075,31033 9997,31076C9941,31108 9882,31146 9867,31162C9839,31189 9807,31197 9783,31182Z" style="fill:white;fill-rule:nonzero;"/>
            </g>
            <g transform="matrix(0.0138109,-0.0138109,-0.0138109,-0.0138109,294.486,757.217)">
                <path d="M10833,31038C10810,31017 10648,30940 10625,30940C10607,30940 10574,30908 10565,30882C10560,30864 10564,30852 10580,30835C10605,30809 10615,30810 10675,30850C10697,30865 10759,30897 10812,30923C10909,30970 10928,30989 10916,31028C10912,31038 10904,31047 10897,31047C10891,31047 10878,31050 10870,31053C10862,31056 10845,31049 10833,31038Z" style="fill:white;fill-rule:nonzero;"/>
            </g>
            <g transform="matrix(0.0138109,-0.0138109,-0.0138109,-0.0138109,294.486,757.217)">
                <path d="M9951,30638C9925,30621 9904,30617 9854,30618C9783,30620 9767,30607 9780,30559C9785,30544 9786,30529 9782,30526C9766,30509 9903,30511 9940,30528C10000,30556 10035,30615 10010,30645C9994,30664 9992,30664 9951,30638Z" style="fill:white;fill-rule:nonzero;"/>
            </g>
            <g transform="matrix(0.0138109,-0.0138109,-0.0138109,-0.0138109,294.486,757.217)">
                <path d="M10490,30526C10457,30493 10499,30429 10569,30405C10596,30396 10626,30380 10635,30370C10667,30335 10720,30347 10720,30389C10720,30420 10679,30464 10640,30475C10626,30479 10604,30492 10590,30505C10562,30530 10506,30542 10490,30526Z" style="fill:white;fill-rule:nonzero;"/>
            </g>
            <g transform="matrix(0.015888,-0.00425719,-0.00534364,-0.0199427,13.3398,886.061)">
                <path d="M10342,31277C10330,31271 10318,31257 10316,31246C10281,31066 10280,31056 10296,31033C10304,31019 10321,31010 10335,31010C10375,31010 10396,31040 10404,31108C10408,31142 10415,31172 10420,31175C10438,31186 10430,31236 10408,31257C10375,31286 10367,31289 10342,31277Z" style="fill:white;fill-rule:nonzero;"/>
            </g>
            <g transform="matrix(0.015888,-0.00425719,-0.00534364,-0.0199427,13.3398,886.061)">
                <path d="M9783,31182C9764,31170 9756,31121 9771,31103C9783,31089 9871,31045 10000,30989C10025,30978 10055,30964 10068,30958C10097,30943 10115,30959 10106,30994C10101,31013 10075,31033 9997,31076C9941,31108 9882,31146 9867,31162C9839,31189 9807,31197 9783,31182Z" style="fill:white;fill-rule:nonzero;"/>
            </g>
            <g transform="matrix(0.015888,-0.00425719,-0.00534364,-0.0199427,13.3398,886.061)">
                <path d="M10833,31038C10810,31017 10648,30940 10625,30940C10607,30940 10574,30908 10565,30882C10560,30864 10564,30852 10580,30835C10605,30809 10615,30810 10675,30850C10697,30865 10759,30897 10812,30923C10909,30970 10928,30989 10916,31028C10912,31038 10904,31047 10897,31047C10891,31047 10878,31050 10870,31053C10862,31056 10845,31049 10833,31038Z" style="fill:white;fill-rule:nonzero;"/>
            </g>
            <g transform="matrix(0.015888,-0.00425719,-0.00534364,-0.0199427,13.3398,886.061)">
                <path d="M9951,30638C9925,30621 9904,30617 9854,30618C9783,30620 9767,30607 9780,30559C9785,30544 9786,30529 9782,30526C9766,30509 9903,30511 9940,30528C10000,30556 10035,30615 10010,30645C9994,30664 9992,30664 9951,30638Z" style="fill:white;fill-rule:nonzero;"/>
            </g>
            <g transform="matrix(0.015888,-0.00425719,-0.00534364,-0.0199427,13.3398,886.061)">
                <path d="M10490,30526C10457,30493 10499,30429 10569,30405C10596,30396 10626,30380 10635,30370C10667,30335 10720,30347 10720,30389C10720,30420 10679,30464 10640,30475C10626,30479 10604,30492 10590,30505C10562,30530 10506,30542 10490,30526Z" style="fill:white;fill-rule:nonzero;"/>
            </g>
            <g transform="matrix(0.015888,-0.00425719,-0.00534364,-0.0199427,13.3398,886.061)">
                <path d="M10201,30426C10194,30418 10187,30399 10184,30383C10175,30330 10147,30239 10139,30234C10121,30223 10130,30171 10150,30160C10179,30144 10213,30185 10250,30281C10282,30364 10287,30409 10268,30428C10252,30444 10215,30443 10201,30426Z" style="fill:white;fill-rule:nonzero;"/>
            </g>
            <g transform="matrix(0.0166197,0.00490521,0.0054473,-0.0184564,-326.027,669.803)">
                <path d="M10342,31277C10330,31271 10318,31257 10316,31246C10281,31066 10280,31056 10296,31033C10304,31019 10321,31010 10335,31010C10375,31010 10396,31040 10404,31108C10408,31142 10415,31172 10420,31175C10438,31186 10430,31236 10408,31257C10375,31286 10367,31289 10342,31277Z" style="fill:white;fill-rule:nonzero;"/>
            </g>
            <g transform="matrix(0.0166197,0.00490521,0.0054473,-0.0184564,-326.027,669.803)">
                <path d="M9783,31182C9764,31170 9756,31121 9771,31103C9783,31089 9871,31045 10000,30989C10025,30978 10055,30964 10068,30958C10097,30943 10115,30959 10106,30994C10101,31013 10075,31033 9997,31076C9941,31108 9882,31146 9867,31162C9839,31189 9807,31197 9783,31182Z" style="fill:white;fill-rule:nonzero;"/>
            </g>
            <g transform="matrix(0.0166197,0.00490521,0.0054473,-0.0184564,-326.027,669.803)">
                <path d="M10833,31038C10810,31017 10648,30940 10625,30940C10607,30940 10574,30908 10565,30882C10560,30864 10564,30852 10580,30835C10605,30809 10615,30810 10675,30850C10697,30865 10759,30897 10812,30923C10909,30970 10928,30989 10916,31028C10912,31038 10904,31047 10897,31047C10891,31047 10878,31050 10870,31053C10862,31056 10845,31049 10833,31038Z" style="fill:white;fill-rule:nonzero;"/>
            </g>
            <g transform="matrix(0.0166197,0.00490521,0.0054473,-0.0184564,-326.027,669.803)">
                <path d="M9951,30638C9925,30621 9904,30617 9854,30618C9783,30620 9767,30607 9780,30559C9785,30544 9786,30529 9782,30526C9766,30509 9903,30511 9940,30528C10000,30556 10035,30615 10010,30645C9994,30664 9992,30664 9951,30638Z" style="fill:white;fill-rule:nonzero;"/>
            </g>
            <g transform="matrix(0.0166197,0.00490521,0.0054473,-0.0184564,-326.027,669.803)">
                <path d="M10490,30526C10457,30493 10499,30429 10569,30405C10596,30396 10626,30380 10635,30370C10667,30335 10720,30347 10720,30389C10720,30420 10679,30464 10640,30475C10626,30479 10604,30492 10590,30505C10562,30530 10506,30542 10490,30526Z" style="fill:white;fill-rule:nonzero;"/>
            </g>
            <g transform="matrix(0.0166197,0.00490521,0.0054473,-0.0184564,-326.027,669.803)">
                <path d="M10201,30426C10194,30418 10187,30399 10184,30383C10175,30330 10147,30239 10139,30234C10121,30223 10130,30171 10150,30160C10179,30144 10213,30185 10250,30281C10282,30364 10287,30409 10268,30428C10252,30444 10215,30443 10201,30426Z" style="fill:white;fill-rule:nonzero;"/>
            </g>
            <g transform="matrix(-0.0165585,-0.00510815,-0.00567266,0.0183884,356.773,-397.286)">
                <path d="M10342,31277C10330,31271 10318,31257 10316,31246C10281,31066 10280,31056 10296,31033C10304,31019 10321,31010 10335,31010C10375,31010 10396,31040 10404,31108C10408,31142 10415,31172 10420,31175C10438,31186 10430,31236 10408,31257C10375,31286 10367,31289 10342,31277Z" style="fill:white;fill-rule:nonzero;"/>
            </g>
            <g transform="matrix(-0.0121805,-0.00375758,-0.00453629,0.0147047,274.998,-299.297)">
                <path d="M10833,31038C10810,31017 10648,30940 10625,30940C10607,30940 10574,30908 10565,30882C10560,30864 10564,30852 10580,30835C10605,30809 10615,30810 10675,30850C10697,30865 10759,30897 10812,30923C10909,30970 10928,30989 10916,31028C10912,31038 10904,31047 10897,31047C10891,31047 10878,31050 10870,31053C10862,31056 10845,31049 10833,31038Z" style="fill:white;fill-rule:nonzero;"/>
            </g>
            <g transform="matrix(-0.0165585,-0.00510815,-0.00567266,0.0183884,356.262,-398.552)">
                <path d="M10490,30526C10457,30493 10499,30429 10569,30405C10596,30396 10626,30380 10635,30370C10667,30335 10720,30347 10720,30389C10720,30420 10679,30464 10640,30475C10626,30479 10604,30492 10590,30505C10562,30530 10506,30542 10490,30526Z" style="fill:white;fill-rule:nonzero;"/>
            </g>
            <g transform="matrix(-0.0165585,-0.00510815,-0.00567266,0.0183884,356.262,-398.552)">
                <path d="M10201,30426C10194,30418 10187,30399 10184,30383C10175,30330 10147,30239 10139,30234C10121,30223 10130,30171 10150,30160C10179,30144 10213,30185 10250,30281C10282,30364 10287,30409 10268,30428C10252,30444 10215,30443 10201,30426Z" style="fill:white;fill-rule:nonzero;"/>
            </g>
            <g transform="matrix(0.0169534,0.00729216,0.00760364,-0.0176776,-396.043,545.327)">
                <path d="M10342,31277C10330,31271 10318,31257 10316,31246C10281,31066 10280,31056 10296,31033C10304,31019 10321,31010 10335,31010C10375,31010 10396,31040 10404,31108C10408,31142 10415,31172 10420,31175C10438,31186 10430,31236 10408,31257C10375,31286 10367,31289 10342,31277Z" style="fill:white;fill-rule:nonzero;"/>
            </g>
            <g transform="matrix(0.0169534,0.00729216,0.00760364,-0.0176776,-396.043,545.327)">
                <path d="M9783,31182C9764,31170 9756,31121 9771,31103C9783,31089 9871,31045 10000,30989C10025,30978 10055,30964 10068,30958C10097,30943 10115,30959 10106,30994C10101,31013 10075,31033 9997,31076C9941,31108 9882,31146 9867,31162C9839,31189 9807,31197 9783,31182Z" style="fill:white;fill-rule:nonzero;"/>
            </g>
            <g transform="matrix(0.0169534,0.00729216,0.00760364,-0.0176776,-396.043,545.327)">
                <path d="M10833,31038C10810,31017 10648,30940 10625,30940C10607,30940 10574,30908 10565,30882C10560,30864 10564,30852 10580,30835C10605,30809 10615,30810 10675,30850C10697,30865 10759,30897 10812,30923C10909,30970 10928,30989 10916,31028C10912,31038 10904,31047 10897,31047C10891,31047 10878,31050 10870,31053C10862,31056 10845,31049 10833,31038Z" style="fill:white;fill-rule:nonzero;"/>
            </g>
            <g transform="matrix(0.0169534,0.00729216,0.00760364,-0.0176776,-396.043,545.327)">
                <path d="M9951,30638C9925,30621 9904,30617 9854,30618C9783,30620 9767,30607 9780,30559C9785,30544 9786,30529 9782,30526C9766,30509 9903,30511 9940,30528C10000,30556 10035,30615 10010,30645C9994,30664 9992,30664 9951,30638Z" style="fill:white;fill-rule:nonzero;"/>
            </g>
            <g transform="matrix(0.0169534,0.00729216,0.00760364,-0.0176776,-396.043,545.327)">
                <path d="M10201,30426C10194,30418 10187,30399 10184,30383C10175,30330 10147,30239 10139,30234C10121,30223 10130,30171 10150,30160C10179,30144 10213,30185 10250,30281C10282,30364 10287,30409 10268,30428C10252,30444 10215,30443 10201,30426Z" style="fill:white;fill-rule:nonzero;"/>
            </g>
            <g transform="matrix(0.0127527,-2.58391e-34,-2.58391e-34,-0.0127527,-229.976,526.309)">
                <path d="M22250,32663C22226,32635 22222,32570 22245,32570C22253,32570 22260,32562 22260,32552C22260,32541 22268,32526 22278,32516C22304,32493 22353,32393 22345,32380C22341,32374 22331,32371 22322,32374C22312,32377 22267,32382 22220,32385C22072,32396 22047,32399 22037,32409C22032,32414 22029,32457 22031,32504C22033,32551 22033,32590 22030,32590C22027,32590 22020,32600 22015,32612C22004,32637 21981,32645 21945,32636C21912,32628 21907,32603 21925,32530C21933,32494 21954,32409 21970,32340C22006,32192 22003,32203 22035,32117C22049,32080 22060,32034 22060,32015C22060,31967 22078,31933 22111,31920C22152,31902 22173,31911 22183,31949C22189,31975 22187,31994 22169,32034C22157,32062 22139,32096 22129,32109C22118,32122 22103,32158 22094,32189C22085,32220 22076,32253 22074,32263C22070,32275 22074,32280 22088,32280C22099,32280 22111,32287 22114,32296C22119,32310 22131,32312 22193,32306C22232,32302 22269,32294 22275,32289C22280,32284 22292,32280 22302,32280C22312,32280 22328,32273 22337,32265C22347,32257 22364,32244 22375,32236C22391,32224 22392,32220 22381,32206C22370,32193 22370,32184 22380,32160C22387,32144 22396,32130 22401,32130C22406,32130 22410,32122 22410,32112C22410,32087 22451,32050 22478,32050C22501,32050 22540,32082 22540,32101C22540,32107 22533,32126 22525,32143C22517,32161 22501,32213 22490,32260C22478,32307 22451,32383 22429,32429C22408,32475 22387,32523 22384,32536C22380,32549 22374,32563 22369,32566C22364,32569 22360,32583 22360,32597C22360,32667 22290,32709 22250,32663Z" style="fill:white;fill-rule:nonzero;"/>
            </g>
            <g transform="matrix(0.0127527,-2.58391e-34,-2.58391e-34,-0.0127527,-229.976,526.309)">
                <path d="M21612,32644C21594,32625 21597,32593 21626,32502L21651,32420L21621,32394C21604,32380 21582,32355 21573,32339C21563,32323 21548,32307 21538,32304C21517,32298 21398,32220 21389,32207C21385,32202 21374,32200 21365,32202C21346,32205 21334,32237 21326,32303C21315,32389 21252,32560 21230,32560C21211,32560 21207,32528 21219,32478C21226,32451 21236,32401 21241,32367C21246,32333 21254,32285 21259,32260C21264,32235 21271,32197 21274,32175C21288,32063 21292,32026 21292,31996C21292,31949 21329,31905 21361,31913C21389,31920 21416,31976 21400,31995C21395,32001 21393,32023 21395,32045C21399,32086 21406,32095 21505,32178C21547,32213 21607,32247 21650,32260C21664,32264 21683,32271 21693,32275C21705,32280 21710,32277 21710,32266C21710,32257 21719,32222 21731,32188C21742,32155 21755,32109 21760,32086C21765,32064 21771,32034 21775,32020C21779,32004 21779,31999 21773,32008C21759,32027 21708,32034 21699,32018C21684,31996 21689,31984 21728,31942C21771,31895 21795,31863 21795,31850C21795,31845 21800,31836 21806,31830C21820,31816 21876,31835 21886,31858C21897,31881 21897,31914 21886,31921C21882,31925 21867,31981 21853,32046C21840,32112 21813,32211 21794,32268C21775,32325 21760,32378 21760,32385C21760,32392 21756,32400 21751,32402C21740,32406 21710,32545 21710,32593C21710,32622 21705,32629 21683,32638C21631,32657 21625,32658 21612,32644ZM21650,32390C21650,32385 21648,32380 21646,32380C21643,32380 21638,32385 21635,32390C21632,32396 21634,32400 21639,32400C21645,32400 21650,32396 21650,32390Z" style="fill:white;fill-rule:nonzero;"/>
            </g>
            <g transform="matrix(0.0082869,8.67362e-20,8.67362e-20,-0.0082869,-75.0185,389.021)">
                <path d="M15705,6890C15702,6885 15692,6884 15683,6887C15672,6891 15669,6890 15674,6882C15678,6875 15674,6867 15665,6864C15656,6860 15644,6846 15639,6832C15631,6810 15633,6803 15655,6783C15669,6770 15680,6755 15680,6750C15680,6744 15691,6740 15703,6740C15716,6740 15742,6732 15761,6723C15797,6705 15991,6513 16134,6354C16183,6300 16264,6212 16314,6160C16455,6015 16630,5817 16630,5805C16630,5795 16591,5737 16532,5660C16522,5646 16467,5568 16411,5485C16355,5403 16282,5297 16248,5250C16215,5203 16172,5140 16152,5110C16131,5080 16085,5012 16049,4960C15971,4848 15914,4753 15883,4688C15863,4645 15863,4639 15876,4625C15885,4617 15895,4610 15899,4610C15914,4610 15948,4657 15984,4730C16026,4814 16023,4809 16155,5008C16207,5087 16250,5155 16250,5160C16250,5164 16257,5173 16265,5180C16277,5190 16322,5253 16370,5325C16482,5497 16669,5760 16679,5760C16683,5760 16702,5739 16722,5713C16742,5686 16776,5647 16797,5625C16818,5603 16859,5557 16887,5523C16915,5489 16943,5455 16949,5448C17005,5380 17061,5306 17080,5271C17088,5257 17099,5242 17103,5239C17108,5236 17111,5229 17111,5224C17109,5201 17123,5180 17141,5180C17152,5180 17159,5176 17155,5171C17145,5153 17187,5150 17219,5166C17257,5185 17272,5218 17263,5262C17252,5316 17181,5368 17162,5335C17152,5316 17135,5330 17055,5430C17018,5477 16953,5553 16910,5600C16867,5647 16820,5700 16805,5718C16790,5735 16773,5747 16768,5743C16762,5740 16760,5742 16763,5747C16767,5753 16763,5763 16754,5771C16713,5805 16718,5834 16773,5895C16783,5906 16816,5948 16848,5989C16879,6031 16913,6072 16923,6082C16932,6092 16940,6103 16940,6108C16940,6112 16956,6132 16976,6154C16995,6175 17030,6218 17053,6249C17076,6280 17100,6310 17106,6315C17112,6321 17139,6354 17166,6388C17193,6423 17245,6489 17282,6533C17319,6578 17348,6621 17345,6628C17342,6635 17344,6639 17349,6635C17354,6632 17372,6647 17389,6669C17408,6693 17428,6707 17442,6707C17505,6708 17509,6710 17518,6743C17523,6761 17523,6779 17519,6785C17514,6790 17510,6802 17510,6812C17510,6831 17469,6862 17439,6867C17428,6869 17420,6865 17420,6860C17420,6853 17413,6853 17400,6860C17383,6869 17380,6868 17380,6850C17380,6839 17375,6831 17368,6832C17362,6834 17355,6826 17353,6815C17351,6804 17345,6786 17339,6775C17334,6764 17328,6744 17326,6730C17320,6689 17308,6660 17299,6666C17294,6669 17290,6665 17290,6657C17290,6650 17282,6635 17272,6624C17262,6614 17232,6576 17205,6540C17178,6504 17153,6473 17150,6470C17147,6467 17122,6436 17095,6400C17067,6365 17040,6329 17033,6320C17026,6312 16986,6260 16943,6205C16901,6150 16863,6103 16860,6100C16856,6097 16816,6046 16771,5985C16725,5925 16685,5874 16681,5872C16677,5871 16627,5920 16570,5982C16512,6044 16436,6125 16400,6162C16364,6199 16321,6244 16305,6262C16289,6280 16249,6324 16215,6360C16144,6437 15988,6608 15938,6665C15918,6687 15879,6729 15851,6758C15823,6788 15800,6818 15800,6827C15800,6845 15775,6872 15766,6863C15763,6859 15760,6861 15760,6867C15760,6881 15712,6901 15705,6890Z" style="fill:white;fill-rule:nonzero;stroke:white;stroke-width:54.3px;"/>
            </g>
            <g transform="matrix(0.0127496,0,0,-0.0127496,-230.358,551.396)">
                <path d="M21328,22803C21319,22801 21308,22790 21305,22779C21301,22769 21294,22760 21289,22760C21284,22760 21280,22753 21280,22744C21280,22736 21284,22731 21289,22734C21294,22738 21296,22731 21293,22720C21290,22709 21292,22694 21298,22687C21306,22678 21305,22666 21295,22645C21287,22628 21265,22570 21245,22515C21186,22353 21152,22266 21136,22234C21090,22142 21076,22105 21076,22075C21076,22036 21077,22035 21110,22027C21144,22019 21172,22041 21170,22077C21169,22092 21168,22119 21168,22135C21167,22152 21185,22207 21207,22258L21247,22351L21253,22310C21258,22268 21285,22237 21308,22245C21321,22250 21326,22248 21391,22214C21471,22172 21525,22103 21534,22031C21538,21990 21551,21977 21581,21982C21600,21984 21606,21992 21608,22019C21613,22066 21550,22188 21503,22226C21483,22242 21459,22263 21449,22273C21438,22282 21427,22290 21424,22290C21403,22290 21371,22351 21381,22376C21396,22418 21494,22458 21533,22438C21544,22432 21550,22433 21550,22441C21550,22448 21559,22450 21572,22447C21603,22439 21640,22484 21637,22526C21636,22544 21632,22556 21628,22554C21625,22552 21613,22561 21602,22575C21591,22589 21578,22600 21573,22599C21557,22596 21520,22613 21520,22623C21520,22629 21517,22631 21514,22627C21504,22618 21422,22689 21413,22713C21409,22725 21407,22742 21409,22751C21410,22765 21360,22813 21348,22809C21347,22808 21337,22806 21328,22803ZM21397,22598C21435,22557 21433,22530 21390,22493C21359,22468 21280,22426 21275,22432C21272,22435 21308,22531 21336,22598C21343,22615 21353,22630 21358,22630C21362,22630 21380,22615 21397,22598Z" style="fill:white;fill-rule:nonzero;"/>
                <path d="M22123,22674C22120,22667 22114,22662 22110,22665C22094,22675 22070,22632 22065,22585C22059,22536 22006,22368 21968,22280C21958,22255 21945,22226 21940,22215C21936,22204 21923,22174 21911,22148C21899,22122 21890,22096 21890,22091C21890,22086 21885,22080 21880,22078C21874,22076 21867,22059 21864,22040C21859,22009 21862,22004 21885,21993C21920,21977 21932,21983 21955,22026C21966,22046 21976,22057 21978,22051C21985,22030 22031,22040 22060,22068C22106,22115 22174,22138 22253,22134C22290,22133 22318,22135 22315,22140C22312,22144 22314,22150 22320,22152C22325,22153 22333,22176 22336,22203C22342,22245 22340,22253 22316,22275C22302,22288 22290,22296 22290,22292C22290,22289 22283,22296 22274,22309C22256,22334 22201,22539 22200,22581C22200,22625 22181,22664 22154,22677C22134,22686 22128,22686 22123,22674ZM22154,22430C22155,22416 22164,22380 22173,22349C22192,22290 22186,22265 22148,22227C22125,22204 22041,22160 22019,22160C22010,22160 21999,22154 21996,22148C21984,22123 21998,22175 22019,22235C22041,22295 22044,22303 22074,22372C22083,22392 22090,22412 22090,22416C22090,22420 22100,22444 22112,22469L22134,22514L22142,22485C22147,22468 22152,22444 22154,22430Z" style="fill:white;fill-rule:nonzero;"/>
                <path d="M21833,22648C21818,22631 21811,22606 21807,22555C21804,22516 21797,22473 21792,22460C21786,22446 21771,22384 21758,22321C21746,22258 21729,22201 21723,22194C21716,22187 21708,22164 21704,22142C21699,22107 21700,22102 21720,22097C21761,22086 21794,22143 21815,22260C21832,22353 21883,22547 21894,22560C21914,22583 21922,22628 21910,22650C21896,22677 21858,22675 21833,22648Z" style="fill:white;fill-rule:nonzero;"/>
                <path d="M22813,22538C22795,22534 22774,22520 22765,22508C22757,22495 22750,22489 22750,22494C22750,22498 22738,22492 22724,22481C22709,22469 22693,22460 22688,22460C22683,22460 22664,22449 22647,22436C22606,22404 22554,22394 22546,22415C22542,22426 22533,22429 22514,22424C22480,22415 22438,22380 22444,22365C22446,22358 22444,22347 22438,22339C22430,22328 22429,22329 22434,22343C22437,22354 22436,22359 22430,22355C22418,22348 22428,22298 22444,22288C22455,22281 22456,22277 22459,22245C22459,22237 22466,22230 22474,22230C22482,22230 22490,22216 22493,22198C22496,22180 22504,22140 22510,22110C22516,22080 22522,22018 22524,21973C22527,21908 22524,21886 22510,21864C22476,21813 22512,21720 22563,21726C22575,21727 22591,21729 22597,21729C22604,21730 22612,21741 22616,21754C22620,21771 22627,21777 22637,21773C22649,21768 22651,21774 22647,21799C22644,21817 22646,21830 22652,21830C22658,21830 22655,21839 22645,21850C22636,21860 22630,21876 22633,21885C22637,21893 22635,21900 22630,21900C22620,21900 22596,21979 22603,21987C22606,21989 22603,22012 22596,22038C22579,22110 22581,22162 22603,22166C22612,22167 22626,22162 22633,22155C22640,22148 22662,22135 22680,22125C22699,22115 22726,22099 22739,22089C22752,22078 22770,22070 22780,22070C22801,22070 22822,22113 22813,22137C22806,22155 22781,22184 22771,22186C22744,22191 22680,22228 22680,22239C22680,22247 22677,22251 22674,22248C22671,22245 22657,22253 22644,22267C22618,22293 22606,22344 22625,22346C22631,22346 22655,22356 22680,22368C22705,22380 22730,22390 22736,22390C22742,22390 22753,22397 22760,22405C22766,22412 22792,22422 22816,22426C22871,22434 22890,22451 22890,22495C22890,22542 22870,22554 22813,22538Z" style="fill:white;fill-rule:nonzero;"/>
            </g>
            <g transform="matrix(0.0103463,0,0,-0.0113004,-114.208,685.197)">
                <path d="M15440,34191C15421,34181 15406,34171 15408,34169C15410,34167 15387,34139 15358,34108C15288,34033 15280,34023 15280,34010C15280,34001 15266,33996 15248,33999C15243,33999 15240,33994 15240,33986C15240,33973 15207,33957 15184,33959C15166,33961 15167,33873 15185,33866C15193,33863 15200,33854 15200,33846C15200,33830 15221,33820 15256,33820C15270,33820 15278,33824 15275,33830C15272,33836 15276,33840 15284,33840C15293,33840 15300,33845 15300,33850C15300,33856 15307,33860 15315,33860C15326,33860 15330,33848 15330,33813C15330,33716 15281,33569 15224,33494C15211,33477 15200,33458 15200,33451C15200,33445 15180,33419 15155,33395C15131,33370 15114,33350 15118,33350C15122,33350 15119,33346 15112,33341C15101,33335 15101,33326 15112,33292C15123,33256 15129,33250 15152,33250C15168,33250 15180,33254 15180,33258C15180,33263 15190,33272 15203,33278C15215,33284 15220,33289 15213,33289C15198,33290 15214,33342 15242,33382C15252,33396 15260,33413 15260,33419C15260,33425 15263,33430 15268,33430C15272,33430 15280,33439 15285,33449C15357,33587 15392,33665 15400,33706C15405,33733 15414,33771 15420,33790C15448,33880 15442,33950 15405,33970C15391,33977 15380,33989 15380,33996C15380,34003 15405,34032 15435,34062C15465,34091 15490,34121 15490,34128C15490,34134 15495,34140 15501,34140C15513,34140 15503,34179 15486,34197C15477,34207 15467,34206 15440,34191Z" style="fill:white;fill-rule:nonzero;"/>
            </g>
            <g transform="matrix(0.0103463,0,0,-0.0113004,-71.3349,684.941)">
                <path d="M10776,34098C10767,34086 10760,34066 10760,34055C10760,34043 10751,34015 10740,33992C10729,33970 10720,33944 10720,33935C10720,33927 10716,33920 10710,33920C10705,33920 10700,33912 10700,33903C10700,33893 10684,33856 10666,33820C10647,33784 10620,33730 10605,33700C10590,33670 10567,33632 10555,33615C10530,33581 10499,33523 10501,33514C10501,33510 10497,33504 10492,33501C10487,33498 10476,33482 10468,33466C10455,33441 10455,33433 10467,33410C10500,33344 10560,33374 10560,33456C10560,33478 10640,33643 10675,33692C10687,33710 10689,33710 10709,33682C10733,33647 10749,33647 10787,33679C10821,33708 10897,33743 10909,33736C10913,33733 10920,33714 10923,33694C10928,33662 10925,33654 10900,33631C10873,33607 10871,33603 10883,33580C10898,33551 10920,33552 10962,33583C10997,33609 11010,33652 10997,33705C10992,33727 10988,33758 10988,33775C10989,33791 10981,33814 10971,33825C10931,33869 10883,33975 10873,34040C10863,34104 10853,34120 10821,34120C10801,34120 10786,34112 10776,34098ZM10840,33888C10873,33830 10876,33814 10858,33812C10806,33806 10778,33795 10769,33778C10763,33767 10756,33761 10753,33764C10749,33767 10740,33764 10732,33758C10707,33737 10727,33803 10766,33867C10785,33898 10800,33927 10800,33932C10800,33950 10811,33937 10840,33888Z" style="fill:white;fill-rule:nonzero;"/>
            </g>
            <g transform="matrix(0.0103463,0,0,-0.0113004,-61.0254,682.761)">
                <path d="M8713,33910C8576,33795 8534,33755 8442,33656C8418,33631 8382,33602 8362,33593C8342,33584 8320,33569 8313,33560C8299,33542 8296,33506 8309,33514C8314,33518 8316,33512 8313,33502C8304,33467 8342,33449 8432,33446C8511,33443 8532,33438 8687,33384C8717,33373 8730,33362 8734,33344C8738,33328 8746,33320 8754,33323C8761,33326 8781,33320 8799,33309C8816,33299 8830,33295 8830,33300C8830,33306 8833,33309 8838,33309C8881,33302 8911,33351 8888,33391C8870,33423 8850,33435 8818,33431C8803,33430 8720,33452 8633,33480C8546,33509 8469,33534 8463,33536C8432,33544 8457,33581 8551,33670C8798,33901 8813,33917 8807,33934C8797,33961 8764,33952 8713,33910Z" style="fill:white;fill-rule:nonzero;"/>
            </g>
            <g transform="matrix(0.00965886,0.0040504,0.00370842,-0.0105496,-284.769,554.729)">
                <path d="M22250,32663C22226,32635 22222,32570 22245,32570C22253,32570 22260,32562 22260,32552C22260,32541 22268,32526 22278,32516C22304,32493 22353,32393 22345,32380C22341,32374 22331,32371 22322,32374C22312,32377 22267,32382 22220,32385C22072,32396 22047,32399 22037,32409C22032,32414 22029,32457 22031,32504C22033,32551 22033,32590 22030,32590C22027,32590 22020,32600 22015,32612C22004,32637 21981,32645 21945,32636C21912,32628 21907,32603 21925,32530C21933,32494 21954,32409 21970,32340C22006,32192 22003,32203 22035,32117C22049,32080 22060,32034 22060,32015C22060,31967 22078,31933 22111,31920C22152,31902 22173,31911 22183,31949C22189,31975 22187,31994 22169,32034C22157,32062 22139,32096 22129,32109C22118,32122 22103,32158 22094,32189C22085,32220 22076,32253 22074,32263C22070,32275 22074,32280 22088,32280C22099,32280 22111,32287 22114,32296C22119,32310 22131,32312 22193,32306C22232,32302 22269,32294 22275,32289C22280,32284 22292,32280 22302,32280C22312,32280 22328,32273 22337,32265C22347,32257 22364,32244 22375,32236C22391,32224 22392,32220 22381,32206C22370,32193 22370,32184 22380,32160C22387,32144 22396,32130 22401,32130C22406,32130 22410,32122 22410,32112C22410,32087 22451,32050 22478,32050C22501,32050 22540,32082 22540,32101C22540,32107 22533,32126 22525,32143C22517,32161 22501,32213 22490,32260C22478,32307 22451,32383 22429,32429C22408,32475 22387,32523 22384,32536C22380,32549 22374,32563 22369,32566C22364,32569 22360,32583 22360,32597C22360,32667 22290,32709 22250,32663Z" style="fill:white;fill-rule:nonzero;"/>
            </g>
            <g transform="matrix(0.0103463,0,0,-0.0113004,-49.4316,623.268)">
                <path d="M7847,28712C7827,28690 7816,28630 7832,28630C7837,28630 7840,28624 7838,28618C7835,28611 7839,28599 7847,28592C7854,28585 7860,28570 7860,28559C7860,28547 7864,28542 7871,28546C7879,28551 7879,28547 7871,28533C7865,28522 7863,28510 7866,28507C7875,28498 7886,28416 7896,28281C7899,28228 7903,28173 7905,28159C7906,28145 7910,28128 7915,28121C7919,28113 7917,28104 7909,28099C7897,28091 7898,28087 7913,28076C7922,28069 7930,28060 7930,28056C7930,28039 7956,28024 7981,28028C8010,28032 8030,28049 8034,28072C8035,28079 8039,28090 8043,28097C8047,28103 8043,28116 8034,28124C8020,28139 8020,28140 8034,28140C8043,28140 8050,28135 8050,28129C8050,28123 8068,28100 8090,28078C8112,28056 8132,28029 8135,28019C8139,28008 8145,28000 8150,28000C8155,28000 8161,27992 8164,27982C8168,27972 8180,27953 8191,27941C8203,27929 8214,27905 8217,27887C8220,27870 8229,27850 8238,27843C8260,27827 8300,27826 8300,27843C8300,27851 8304,27850 8310,27840C8319,27827 8324,27833 8321,27853C8321,27857 8325,27860 8330,27860C8344,27860 8343,27923 8328,27954C8317,27980 8288,27996 8271,27986C8251,27973 8100,28172 8100,28212C8100,28223 8111,28235 8126,28240C8150,28250 8254,28256 8275,28250C8281,28248 8297,28252 8312,28258C8336,28268 8339,28274 8338,28315C8338,28347 8334,28360 8325,28356C8319,28354 8308,28360 8301,28369C8293,28379 8277,28385 8259,28384C8243,28383 8230,28385 8230,28388C8230,28392 8207,28406 8180,28419C8152,28433 8130,28448 8130,28452C8130,28456 8124,28460 8117,28460C8099,28460 8032,28528 7990,28588C7971,28616 7951,28639 7947,28640C7942,28640 7942,28644 7945,28650C7953,28664 7922,28720 7906,28720C7898,28720 7885,28722 7878,28725C7870,28728 7856,28722 7847,28712ZM8166,28338C8169,28334 8163,28330 8153,28329C8143,28329 8123,28326 8108,28324C8092,28321 8080,28324 8080,28329C8080,28335 8074,28337 8067,28334C8059,28331 8047,28336 8040,28345C8033,28353 8021,28360 8013,28360C8003,28360 8000,28371 8001,28398C8002,28418 8005,28438 8007,28442C8011,28449 8156,28354 8166,28338Z" style="fill:white;fill-rule:nonzero;"/>
            </g>
        </g>
    </g>
</svg>
