<?xml version="1.0" encoding="UTF-8" standalone="no"?>
<!DOCTYPE svg PUBLIC "-//W3C//DTD SVG 1.1//EN" "http://www.w3.org/Graphics/SVG/1.1/DTD/svg11.dtd">
<svg width="100%" height="100%" viewBox="0 0 216 331" version="1.1" xmlns="http://www.w3.org/2000/svg" xmlns:xlink="http://www.w3.org/1999/xlink" xml:space="preserve" xmlns:serif="http://www.serif.com/" style="fill-rule:evenodd;clip-rule:evenodd;stroke-linejoin:round;stroke-miterlimit:2;">
    <g transform="matrix(0.1,0,0,-0.1,-589.535,1174.41)">
        <path d="M7565,11740C7554,11736 7542,11734 7539,11736C7535,11738 7527,11726 7520,11710C7509,11684 7510,11673 7525,11639C7543,11601 7543,11591 7528,11442C7519,11356 7514,11263 7516,11235C7522,11171 7548,11100 7573,11078C7597,11057 7592,11057 7625,11070C7646,11078 7651,11085 7647,11101C7643,11116 7648,11124 7668,11133C7683,11139 7697,11148 7700,11151C7703,11155 7739,11167 7780,11179C7898,11213 7922,11219 7962,11224C7982,11226 8010,11236 8025,11246C8048,11261 8051,11269 8046,11299C8040,11335 8023,11359 7999,11364C7952,11374 7883,11428 7763,11550C7678,11635 7637,11687 7642,11702C7652,11730 7603,11754 7565,11740ZM7673,11530C7679,11530 7705,11509 7734,11480C7740,11474 7754,11461 7764,11452C7775,11443 7794,11424 7808,11410C7821,11396 7848,11369 7867,11349C7887,11328 7900,11308 7896,11301C7879,11274 7620,11170 7620,11191C7620,11196 7616,11199 7611,11195C7578,11175 7568,11363 7596,11460C7605,11490 7614,11528 7617,11543L7622,11571L7644,11551C7656,11539 7669,11530 7673,11530Z" style="fill:rgb(205,199,78);fill-rule:nonzero;"/>
    </g>
    <g transform="matrix(0.1,0,0,-0.1,-589.535,1174.41)">
        <path d="M7164,11712C7158,11708 7144,11691 7133,11673C7110,11634 6952,11468 6916,11445C6902,11435 6890,11422 6890,11415C6890,11409 6878,11398 6864,11392C6849,11385 6842,11375 6846,11368C6850,11362 6849,11360 6842,11364C6829,11372 6816,11353 6813,11325C6813,11314 6809,11296 6806,11285C6798,11259 6821,11230 6856,11224C6871,11221 6888,11216 6894,11213C6900,11209 6918,11205 6935,11203C6985,11199 7004,11194 7035,11178C7071,11159 7118,11108 7113,11094C7111,11088 7119,11073 7130,11060C7141,11047 7150,11034 7150,11030C7150,11014 7181,11012 7207,11025C7222,11033 7242,11040 7251,11040C7275,11040 7295,11118 7279,11150C7272,11166 7299,11240 7312,11240C7317,11240 7328,11248 7338,11258C7348,11267 7371,11287 7388,11303C7420,11330 7430,11360 7409,11360C7403,11360 7400,11367 7403,11374C7412,11396 7366,11434 7331,11436C7314,11437 7300,11433 7300,11428C7300,11422 7294,11420 7286,11423C7279,11426 7263,11422 7252,11414C7233,11401 7176,11400 7163,11413C7152,11424 7100,11379 7100,11359C7100,11328 7147,11287 7173,11295C7226,11311 7260,11304 7260,11276C7260,11270 7255,11272 7249,11280C7241,11292 7240,11292 7242,11275C7245,11249 7209,11188 7193,11194C7187,11197 7180,11194 7178,11188C7175,11181 7155,11189 7127,11208C7102,11226 7058,11252 7029,11266C7001,11281 6975,11301 6973,11311C6970,11321 6964,11328 6960,11325C6946,11317 6938,11339 6944,11365C6950,11389 7044,11486 7092,11519C7106,11528 7138,11555 7165,11580C7265,11673 7262,11668 7228,11700C7205,11721 7183,11725 7164,11712Z" style="fill:rgb(205,199,78);fill-rule:nonzero;"/>
    </g>
    <g transform="matrix(0.1,0,0,-0.1,-589.535,1174.41)">
        <path d="M6641,11668C6631,11653 6628,11617 6629,11555C6630,11473 6616,11327 6602,11290C6600,11282 6596,11267 6595,11257C6594,11247 6588,11234 6582,11228C6551,11197 6441,11405 6415,11542C6411,11563 6402,11584 6394,11591C6386,11597 6380,11609 6380,11616C6380,11624 6370,11630 6355,11630C6341,11630 6330,11625 6330,11619C6330,11614 6326,11611 6322,11614C6306,11623 6280,11580 6280,11544C6280,11525 6289,11492 6299,11471C6312,11446 6317,11420 6315,11394C6312,11373 6309,11338 6306,11318C6301,11273 6272,11182 6260,11175C6249,11168 6180,11239 6180,11256C6180,11263 6177,11270 6173,11272C6165,11275 6160,11283 6083,11430C6038,11518 5986,11568 5955,11556C5930,11547 5937,11501 5970,11470C5986,11455 6025,11394 6056,11334C6124,11205 6200,11080 6212,11080C6216,11080 6220,11071 6220,11060C6220,11049 6226,11040 6234,11040C6242,11040 6250,11035 6252,11029C6254,11023 6270,11029 6290,11042C6322,11064 6326,11071 6331,11125C6338,11198 6380,11380 6389,11380C6393,11380 6402,11363 6409,11343C6416,11322 6435,11284 6451,11257C6467,11231 6480,11205 6480,11200C6480,11194 6485,11190 6490,11190C6496,11190 6500,11185 6500,11179C6500,11173 6509,11155 6521,11139C6532,11123 6539,11110 6536,11110C6525,11110 6566,11074 6586,11065C6642,11041 6665,11079 6666,11200C6668,11308 6694,11490 6714,11529C6722,11543 6731,11575 6735,11600C6740,11638 6738,11649 6720,11668C6693,11696 6659,11696 6641,11668Z" style="fill:rgb(205,199,78);fill-rule:nonzero;"/>
    </g>
    <g transform="matrix(0.1,0,0,-0.1,-780.887,1249.84)">
        <path d="M9443,11594C9430,11580 9420,11559 9420,11548C9420,11528 9378,11472 9286,11370C9263,11345 9227,11303 9205,11276C9183,11249 9158,11220 9149,11211C9141,11202 9095,11150 9048,11095C9001,11040 8937,10969 8906,10938L8850,10881L8827,10913C8806,10941 8727,11098 8644,11275C8629,11308 8607,11371 8596,11414C8572,11505 8557,11519 8511,11499C8467,11479 8463,11455 8497,11412C8513,11391 8550,11321 8580,11255C8640,11121 8746,10910 8774,10868C8796,10834 8790,10806 8753,10765C8737,10749 8687,10688 8641,10630C8558,10525 8471,10423 8437,10388C8397,10346 8396,10280 8436,10280C8454,10280 8520,10345 8537,10380C8553,10410 8572,10440 8585,10455C8591,10461 8606,10481 8620,10500C8634,10518 8661,10551 8681,10574C8700,10597 8737,10642 8762,10675C8837,10774 8831,10774 8892,10675C8986,10523 9009,10477 9003,10450C8999,10430 9008,10414 9039,10380C9062,10355 9078,10329 9075,10323C9073,10316 9075,10310 9080,10310C9086,10310 9090,10302 9090,10291C9090,10279 9099,10271 9117,10267C9145,10262 9189,10274 9191,10287C9191,10292 9193,10306 9195,10320C9200,10357 9190,10390 9174,10390C9167,10390 9142,10416 9118,10448C9095,10479 9071,10510 9066,10517C9060,10523 9045,10546 9033,10567C9020,10588 8981,10654 8946,10713L8881,10822L9013,10954C9086,11028 9156,11091 9170,11095C9207,11107 9218,11123 9215,11166C9212,11206 9225,11225 9357,11370C9374,11389 9398,11417 9410,11432C9423,11449 9437,11457 9446,11453C9465,11446 9510,11469 9510,11486C9510,11493 9514,11500 9519,11502C9523,11504 9530,11522 9534,11542C9539,11572 9537,11582 9518,11599C9489,11627 9470,11625 9443,11594Z" style="fill:rgb(205,199,78);fill-rule:nonzero;"/>
    </g>
    <g transform="matrix(0.1,0,0,-0.1,-512.262,1290.94)">
        <path d="M6997,10538C6989,10525 6982,10489 6981,10458C6980,10426 6975,10388 6969,10373C6963,10357 6956,10336 6955,10325C6953,10314 6947,10278 6941,10246C6934,10205 6933,10168 6940,10126C6945,10092 6951,10032 6952,9992C6953,9924 6956,9917 6983,9896C7007,9877 7016,9875 7036,9884C7080,9904 7083,9941 7049,10037C7002,10168 7001,10235 7040,10361C7058,10418 7073,10472 7075,10480C7077,10488 7081,10502 7084,10510C7089,10521 7080,10530 7058,10539C7040,10547 7022,10555 7018,10557C7014,10559 7005,10551 6997,10538Z" style="fill:rgb(205,199,78);fill-rule:nonzero;"/>
    </g>
    <g transform="matrix(0.1,0,0,-0.1,-512.262,1290.94)">
        <path d="M6736,10511C6724,10488 6707,10185 6709,10026C6710,10004 6706,9970 6700,9951C6692,9923 6694,9911 6711,9884C6723,9863 6738,9852 6750,9853C6761,9854 6770,9858 6770,9863C6770,9867 6774,9869 6779,9865C6784,9862 6795,9869 6803,9880C6818,9902 6815,9940 6796,9952C6778,9964 6782,10220 6803,10449C6811,10525 6765,10568 6736,10511Z" style="fill:rgb(205,199,78);fill-rule:nonzero;"/>
    </g>
    <g transform="matrix(0.1,0,0,-0.1,-512.262,1290.94)">
        <path d="M6023,10490C6010,10485 6000,10476 6000,10471C6000,10465 5984,10446 5963,10428C5943,10410 5915,10384 5900,10370C5817,10293 5753,10255 5700,10251C5689,10251 5680,10243 5680,10235C5680,10227 5677,10220 5673,10220C5658,10220 5639,10167 5651,10159C5657,10156 5662,10149 5663,10144C5665,10120 5727,10089 5780,10084C5839,10079 5932,10048 5959,10024C5968,10016 5820,9913 5752,9878C5729,9866 5716,9835 5722,9803C5728,9772 5793,9773 5827,9804C5842,9818 5858,9830 5862,9830C5866,9830 5870,9842 5872,9857C5875,9884 5881,9887 6021,9957C6035,9964 6050,9967 6054,9963C6063,9954 6097,9993 6092,10008C6090,10014 6093,10020 6099,10020C6105,10020 6110,10025 6110,10031C6110,10036 6106,10038 6100,10035C6095,10032 6090,10036 6090,10044C6090,10070 6088,10075 6068,10088C6058,10095 6042,10100 6032,10097C6023,10095 6002,10100 5987,10107C5972,10115 5955,10118 5950,10115C5944,10112 5940,10113 5940,10117C5940,10126 5871,10160 5853,10160C5848,10160 5832,10169 5819,10181L5795,10202L5830,10231C5870,10265 5970,10339 6018,10372C6037,10385 6065,10406 6082,10420C6109,10443 6111,10448 6099,10473C6086,10501 6064,10506 6023,10490Z" style="fill:rgb(205,199,78);fill-rule:nonzero;"/>
    </g>
    <g transform="matrix(0.1,0,0,-0.1,-512.262,1290.94)">
        <path d="M6421,10452C6401,10431 6365,10390 6340,10360C6315,10330 6280,10290 6262,10270C6244,10251 6217,10221 6203,10203C6188,10185 6170,10171 6162,10172C6153,10174 6142,10160 6134,10137C6122,10104 6123,10095 6136,10075C6145,10061 6167,10045 6186,10038C6205,10032 6220,10022 6220,10018C6220,10013 6227,10010 6235,10012C6248,10015 6412,9861 6464,9798C6479,9780 6491,9775 6517,9778C6535,9780 6550,9787 6550,9792C6550,9797 6557,9808 6565,9816C6585,9837 6584,9873 6563,9892C6538,9913 6512,9921 6508,9908C6504,9896 6420,9938 6420,9952C6420,9956 6413,9960 6405,9960C6397,9960 6390,9966 6390,9973C6390,9979 6356,10020 6315,10062C6274,10104 6240,10143 6240,10148C6240,10154 6298,10217 6370,10290C6471,10392 6499,10427 6498,10446C6497,10459 6490,10470 6482,10470C6475,10470 6472,10475 6475,10480C6491,10505 6454,10486 6421,10452Z" style="fill:rgb(205,199,78);fill-rule:nonzero;"/>
    </g>
    <g transform="matrix(0.1,0,0,-0.1,-512.262,1290.94)">
        <path d="M5416,10429C5397,10407 5391,10388 5392,10360C5393,10320 5385,10301 5253,10035C5197,9924 5142,9830 5131,9830C5128,9830 5124,9817 5123,9800C5121,9779 5127,9767 5140,9760C5167,9745 5194,9764 5210,9809C5217,9829 5233,9868 5247,9897C5269,9945 5273,9948 5294,9939C5312,9930 5329,9934 5380,9959C5415,9975 5447,9987 5451,9984C5461,9978 5479,9835 5485,9710C5487,9675 5493,9644 5499,9642C5505,9640 5510,9632 5510,9624C5510,9601 5567,9606 5581,9631C5594,9656 5600,9710 5589,9710C5576,9710 5540,9796 5529,9855C5517,9920 5521,9969 5541,10017C5553,10047 5552,10051 5531,10074C5512,10095 5509,10108 5509,10174C5509,10216 5511,10254 5514,10258C5524,10275 5529,10394 5520,10410C5489,10467 5453,10474 5416,10429ZM5448,10171C5451,10084 5443,10060 5410,10060C5400,10060 5390,10057 5388,10053C5387,10048 5366,10035 5343,10023L5301,10002L5310,10023C5324,10060 5382,10173 5406,10211C5419,10231 5426,10251 5422,10255C5418,10259 5422,10261 5430,10258C5441,10255 5446,10234 5448,10171Z" style="fill:rgb(205,199,78);fill-rule:nonzero;"/>
    </g>
</svg>
